<svg width="919" height="496" viewBox="0 0 919 496" fill="none" xmlns="http://www.w3.org/2000/svg">
<g clip-path="url(#clip0_1880_33507)">
<mask id="mask0_1880_33507" style="mask-type:luminance" maskUnits="userSpaceOnUse" x="-175" y="15" width="1243" height="484">
<path d="M-174.504 15.666H1067.75V498.333H-174.504V15.666Z" fill="white"/>
</mask>
<g mask="url(#mask0_1880_33507)">
<path fill-rule="evenodd" clip-rule="evenodd" d="M437.599 483.661L437.891 483.656V455.031L437.604 455.026L399.677 453.891L399.375 453.88V484.047H399.672L437.599 483.661ZM399.958 454.479L437.307 455.599V483.083L399.958 483.464V454.479ZM328.833 459.333L328.573 459.339V465.339L328.839 465.328L333.813 465.245L334.068 465.234V459.188L333.797 459.193L328.833 459.333ZM333.547 464.729L329.104 464.807V459.854L333.547 459.734V464.729ZM293.469 460.276L293.214 460.286V465.969H293.474L297.88 465.891L298.146 465.88V460.151L297.875 460.161L293.469 460.276ZM297.62 465.37L293.74 465.438V460.797L297.62 460.693V465.37ZM304.797 459.979L304.536 459.984V465.771H304.802L309.391 465.682L309.646 465.677V459.844L309.385 459.854L304.797 459.979ZM309.13 465.161L305.073 465.234V460.49L309.13 460.38V465.161ZM316.578 459.656L316.323 459.672V465.557L316.583 465.552L321.354 465.464L321.615 465.453V459.521L321.349 459.531L316.578 459.656ZM321.094 464.948L316.849 465.031V460.177L321.094 460.057V464.948ZM348.708 377.37L335.505 369.427L335.281 369.38L191.375 393.792L191.099 393.844V436.786L191.458 436.76L226.406 433.885L240 437.807L240.115 437.818L246.844 437.328L393.906 426.635L394.214 426.62V370.411L393.839 370.469L348.708 377.37ZM192.911 435.979L191.766 436.073V394.396L192.911 394.198V435.979ZM196.016 430.667V435.724L193.438 435.938V394.115L335.281 370.052L337.245 371.234L206.057 393.047L205.839 393.083V419.958L196.083 430.49L196.016 430.667ZM389.182 426.323L309.453 432.12L313.068 429.703L389.182 423.828V426.323ZM393.557 426.005L389.703 426.286V411.313L393.557 408.313V426.005ZM393.557 407.646L389.281 410.979L389.182 411.063V423.292L312.964 429.177L312.839 429.224L308.396 432.193L246.797 436.672L240.12 437.156L226.526 433.24L226.406 433.224L196.526 435.677V430.771L206.286 420.234L206.354 420.063V393.521L337.927 371.651L348.464 377.99L348.682 378.036L393.547 371.172V407.646H393.557ZM393.927 363.474L394.146 363.438V359.385L393.839 359.443L390.958 359.927L391 360.182H390.734V363.995L391.047 363.943L393.927 363.474ZM391.271 360.411L393.625 360.021V363L391.271 363.396V360.411ZM373.089 366.911L373.318 366.87V362.922L373.01 362.979L370.302 363.438L370.349 363.698H370.083V367.401L370.391 367.349L373.089 366.911ZM370.609 363.917L372.786 363.542V366.422L370.609 366.781V363.917ZM383.344 365.214L383.563 365.177V361.177L383.26 361.234L380.474 361.708L380.516 361.964H380.255V365.724L380.552 365.672L383.344 365.214ZM380.781 364.557V362.188L383.042 361.802V364.729L380.776 365.109L380.781 364.557ZM421.411 457.172L421.031 457.161V481.151L421.406 481.146L434.563 481.057H434.927V457.516L434.568 457.51L421.411 457.172ZM434.193 480.333L421.766 480.417V457.906L434.193 458.234V480.333ZM402.917 456.682L402.542 456.672V481.266H402.901L416.474 481.167H416.839V457.042H416.49L402.917 456.682ZM416.12 480.453L403.276 480.536V457.422L416.12 457.76V480.453ZM177.734 222.453L177.469 222.484L150.932 236.781L151.021 237.448L158.563 239.281L158.818 239.25L185.573 225.177L185.5 224.505L177.734 222.453ZM158.594 238.542L152.109 236.974L177.682 223.193L184.396 224.969L158.594 238.542ZM338.979 144.375L339.135 144.443L339.286 144.365L346.807 140.417L347.484 140.057L346.781 139.755L338.125 136.078L337.958 136.01L337.802 136.094L330.297 140.135L329.615 140.5L330.328 140.792L338.979 144.375ZM338 136.813L345.786 140.12L339.104 143.635L331.318 140.401L338 136.813ZM233.734 199.734L234.01 199.708L239.224 196.974L239.161 196.302L230.995 193.76L230.849 193.719L230.719 193.786L225.536 196.573L224.766 196.99L225.599 197.245L233.734 199.734ZM230.917 194.51L238.099 196.734L233.802 198.99L226.641 196.797L230.917 194.51ZM264.688 183.453L264.828 183.5L264.969 183.427L270.797 180.359L271.547 179.964L270.745 179.688L262.391 176.833L262.245 176.786L262.104 176.865L256.313 179.995L255.573 180.391L256.37 180.651L264.688 183.453ZM262.307 177.583L269.714 180.115L264.776 182.719L257.396 180.24L262.307 177.583ZM299.495 165.141L299.646 165.198L299.786 165.12L306.385 161.651L307.099 161.276L306.339 160.995L297.807 157.76L297.656 157.703L297.51 157.781L290.953 161.318L290.25 161.703L291 161.984L299.495 165.141ZM297.714 158.495L305.333 161.375L299.589 164.396L292.005 161.568L297.714 158.495ZM611.406 462.245L611.104 462.234L606.974 462.125L606.661 462.12V476.505H611.406V462.245ZM610.797 475.896H607.276V462.745L610.797 462.839V475.896ZM601.807 461.99L601.51 461.984L597.229 461.875L596.911 461.865V476.505H601.802V461.99H601.807ZM601.198 475.896H597.531V462.495L601.198 462.594V475.896ZM587.125 461.615L586.807 461.609V476.51H591.865V461.74L591.563 461.734L587.125 461.615ZM591.25 475.896H587.432V462.229L591.25 462.339V475.896ZM214.547 419.427H215.276V411.25H214.547V419.427ZM229.964 417.703H230.693V409.281H229.964V417.703ZM222.141 418.573H222.87V410.276H222.141V418.573ZM238.031 416.797H238.76V408.245H238.031V416.797ZM586.026 297.521L586.297 297.542L634.896 287.625L635.318 287.542V262.115L634.99 261.974L630.458 260.047L630.13 260.021L581.349 271.417L580.948 271.51V295.865L581.313 295.99L586.026 297.521ZM630.786 261.328L634.271 262.807V286.354L630.786 285.047V261.328ZM630.214 285.953L632.906 286.964L586.224 296.479L583.526 295.604L630.214 285.953ZM582.005 272.354L629.734 261.203V284.99L582.005 294.854V272.354ZM852.302 385.526L853.5 385.917V326.906L853.005 326.646L700.245 247.047L698.891 246.349V336.323L699.542 336.531L852.302 385.526ZM718.734 340.76L716.589 340.078V319.385L718.734 320.182V340.76ZM718.734 319.625L716.589 318.828V288.724L718.734 289.677V319.625ZM718.734 289.104L716.589 288.146V285.828L718.734 286.792V289.104ZM747.958 350.135L724.563 342.63V322.354L747.958 331.047V350.135ZM747.958 330.474L724.563 321.792V292.271L747.958 302.693V330.474ZM747.958 302.13L724.563 291.708V289.443L747.958 300.031V302.13ZM750.427 350.927L748.484 350.297V331.234L750.427 331.953V350.927ZM750.427 331.396L748.484 330.677V302.932L750.427 303.797V331.396ZM750.427 303.219L748.484 302.354V300.26L750.427 301.135V303.219ZM772.021 357.849L755.516 352.552V333.844L772.021 339.974V357.849ZM775.661 359.016L772.557 358.021V340.026L775.661 339.63V359.016ZM775.661 339.099L772.328 339.526L755.526 333.286V306.057L775.661 315.036V339.099ZM775.661 314.453L755.526 305.484V303.443L775.661 312.552V314.453ZM777.661 359.661L776.193 359.193V339.563L777.661 339.375V359.661ZM777.661 338.839L776.193 339.026V315.271L777.661 315.922V338.839ZM777.661 315.349L776.193 314.698V312.797L777.661 313.464V315.349ZM799.75 366.74L782.161 361.104L782.156 338.792L799.75 336.536V366.74ZM799.75 336.005L782.156 338.26L782.146 317.922L799.75 325.771V336.005ZM799.75 325.193L782.146 317.354V315.495L799.75 323.464V325.193ZM801.307 367.25L800.276 366.917V336.469L801.307 336.333V367.25ZM801.307 335.807L800.276 335.943V326L801.307 326.458V335.807ZM801.307 325.896L800.276 325.438V323.708L801.307 324.172V325.896ZM820.896 373.531L805.333 368.536V335.828L818.536 334.135L820.896 335.182V373.531ZM805.333 335.302V328.255L817.609 333.724L805.333 335.302ZM820.896 334.609L819.531 334L820.896 333.833V334.609ZM820.896 333.297L818.615 333.594L805.339 327.682V325.995L820.901 333.036V333.297H820.896ZM822.042 373.896L821.417 373.693V335.422L822.042 335.698V373.896ZM822.042 335.125L821.417 334.844V333.755L822.042 333.677V335.125ZM849.839 382.813L825.823 375.104V331.521L849.839 328.406V382.813ZM850.37 328.328L851.656 328.167V383.396L850.37 382.984V328.328ZM700.74 249.38L850.063 327.182L849.615 327.234L700.74 250.51V249.38ZM700.74 251.104L848.698 327.365L825.318 330.401L700.734 272.578V251.104H700.74ZM700.74 273.885L824.635 331.385V374.729L822.771 374.125V333.083L822.557 332.984L805.12 325.089L804.604 324.859V368.297L802.042 367.474V323.698L801.828 323.599L781.943 314.594L781.427 314.359V314.927L781.438 360.859L778.396 359.88V312.979L778.182 312.88L755.302 302.542L754.792 302.313V352.323L751.156 351.156V300.667L750.943 300.568L724.354 288.536L723.839 288.297V342.391L719.469 340.984V286.323L719.255 286.224L700.745 277.839V273.885H700.74ZM700.74 278.641L716.063 285.583V287.901L700.74 281.078V278.641ZM700.74 281.661L716.063 288.495V318.635L700.74 312.943V281.661ZM700.74 313.5L716.063 319.188V339.901L700.74 334.984V313.5ZM824.927 492.458L824.792 492.427H774.729L728.818 475.88L728.693 475.859H715.708V471.802H714.974V496.411H702.036V494.109H701.208V496.411H688.271V462.708H687.536V475.865H621.984V433.865L635.068 427.354L635.182 427.297L635.203 427.161L635.599 425.271L644.979 420.656L645.286 420.505V411.344L701.208 407.422V408.578H702.036V407.37L714.932 406.464V407.328H715.76V406.406L860.922 396.219L861.781 396.167V323.203L861.302 322.938L737.906 255.089L805.26 240.583L805.896 240.448V177.609L805.625 177.37L633.974 23.6354L633.578 23.276L633.109 23.5052L489.604 93.5469V84.3229H488.99V93.849L488.813 93.9375L392.193 37.099L392.62 36.8281L392.177 36.1354L391.693 36.4479V22.0573C392.406 21.9844 393.073 21.7083 393.557 21.2188C394.115 20.6615 394.458 19.8958 394.458 19.0469C394.458 18.1979 394.115 17.4271 393.557 16.875C393.005 16.3229 392.229 15.9688 391.385 15.9688C390.536 15.9688 389.771 16.3177 389.214 16.875C388.661 17.4323 388.307 18.1979 388.307 19.0469C388.307 19.8958 388.651 20.6667 389.214 21.2188C389.693 21.7083 390.359 21.9844 391.078 22.0573V36.4479L382.719 31.5365L382.411 32.0625L390.818 37.0052L389.917 37.5885L390.359 38.2865L391.078 37.8281V63.2448L390.938 63.3229L225.396 163.063L224.974 163.313V171.021L167.859 204.589V203.078H167.031V205.063L106.745 240.5L106.318 240.75V249.682L106.995 249.833L167.031 263.068V265.323H167.859V263.25L186.052 267.255L167.859 275.167V273.589H167.031V275.526L106.833 301.682L106.313 301.911V310.953L107.042 311.078L139.714 316.339L19.1563 360.651L18.5833 360.865V410.74L19.4167 410.792L157.109 418.948H157.276L181.141 415.865V452.333L182.115 452.359L286.391 455.078V460.458L282.927 460.578L282.578 460.594V472.552L280.448 472.63L280.094 472.641V475.88H159.375L84.026 488.297H-174.5V489.026H84.0521L84.1042 489.021L159.458 476.599H280.078V490.781H150.104V496.417H-174.5V497.464H841.719V496.417H834.505L824.927 492.458ZM634.714 426.932L621.599 433.458L621.458 433.531V475.859H620.427V432.724L635 425.557L634.714 426.932ZM621.458 476.589V486.495H620.427V476.589H621.458ZM644.193 419.818L619.641 431.891L619.333 432.042V489.63H564.656V472.526L564.625 472.401L561.797 467.161V450.74L592.104 449.807L593.068 449.776V385.651L644.193 394.198V419.818ZM488.396 451.042L328.484 444.682L345.536 443.786L505.005 450.521L488.396 451.042ZM502.589 452.578V494.078H486.172V453.089L502.589 452.578ZM363.401 482.76L357.266 476.661V448.505L441.385 451.568V492.521H399.01L394.401 490.797L394.276 490.771H363.479V482.833L363.401 482.76ZM361.745 484.833L355.604 478.734V448.443L356.734 448.49V476.875L356.818 476.958L362.958 483.052V490.771H361.828V484.901L361.745 484.833ZM355.161 479.031L361.302 485.13V490.771H353.594V448.37L355.078 448.427V478.948L355.161 479.031ZM475.896 493.104V494.078H403.161L400.563 493.104H475.896ZM442.849 492.521V474.089H447.599L464.875 486.661L465.146 486.755H475.896V492.521H442.849ZM465.292 485.839L448.016 473.26L447.745 473.172H442.849V471.099H452.182L469.901 484.516L470.12 484.589H475.896V485.839H465.292ZM442.849 452.453V451.5L456.833 452.026L442.849 452.453ZM464.036 453.776V479.161L452.521 470.443L452.302 470.37H444.833V454.37L464.036 453.776ZM444.307 454.385V470.37H442.849V454.432L444.307 454.385ZM464.563 479.563V453.766L474.563 453.453V483.859H470.245L464.563 479.563ZM475.089 483.859V453.432L475.896 453.406V483.859H475.089ZM464.505 451.781L442.849 450.964V450.161L442.146 450.135L352.891 446.88H352.833L344.177 447.276L306.115 445.854L322.823 444.974L481.016 451.26L464.505 451.781ZM239.568 449.349L255.557 448.505L291.474 449.688L287.078 449.885L286.38 449.917V450.786L239.568 449.349ZM286.38 451.307V452.484L217.568 450.5L233.24 449.682L286.38 451.307ZM314.646 448.63L298.104 449.385L261.667 448.188L277.844 447.339L314.646 448.63ZM283.87 447.021L300.302 446.161L337.896 447.563L321.172 448.328L283.87 447.021ZM287.839 451.313L352.13 448.38V490.771H287.839V451.313ZM476.63 493.104H485.13V494.078H476.63V493.104ZM476.63 492.521V453.391L485.13 453.125V492.521H476.63ZM352.443 351.656V353.438L350.281 353.839L309.948 347.625V256.141L352.625 267.521H352.443V270.182H353.271V267.698L484.766 302.786V357.031L442.115 349.318V347H441.286V349.177L407.661 343.089H407.302L353.271 353.286V351.661H352.443V351.656ZM176.781 377.38L186.859 375.245L218.505 378.724L208.052 380.698L176.781 377.38ZM206.26 381.036L195.906 382.995L165.182 379.849L175.12 377.74L206.26 381.036ZM188.495 374.891L198.688 372.724L230.854 376.385L220.281 378.38L188.495 374.891ZM200.307 372.385L210.635 370.193L243.286 374.042L232.594 376.057L200.307 372.385ZM212.234 369.854L222.698 367.63L255.839 371.682L245.01 373.729L212.234 369.854ZM224.276 367.292L234.875 365.036L268.484 369.292L257.536 371.359L224.276 367.292ZM236.432 364.708L247.167 362.427L281.229 366.885L270.156 368.974L236.432 364.708ZM248.714 362.094L259.609 359.786L294.109 364.448L282.891 366.568L248.714 362.094ZM261.135 359.458L272.188 357.115L307.12 361.99L295.75 364.141L261.135 359.458ZM273.693 356.792L284.906 354.417L320.25 359.516L308.729 361.693L273.693 356.792ZM286.38 354.099L297.781 351.677L333.516 357.01L321.844 359.224L286.38 354.099ZM299.25 351.359L309.099 349.271L345.109 354.823L335.089 356.719L299.25 351.359ZM123.932 305.042L155.703 310.443L149.125 312.865L117.599 307.651L123.932 305.042ZM116.615 307.495L116.167 307.411L122.474 304.797L122.958 304.88L116.615 307.495ZM123.38 304.427L129.714 301.797L130.234 301.885L123.87 304.505L123.38 304.427ZM124.844 304.672L131.203 302.052L163.292 307.667L156.688 310.094L124.844 304.672ZM130.62 301.422L136.974 298.776L137.531 298.885L131.146 301.516L130.62 301.422ZM132.104 301.677L138.49 299.052L170.885 304.87L164.276 307.307L132.104 301.677ZM137.865 298.417L144.234 295.766L144.839 295.88L138.427 298.516L137.865 298.417ZM139.391 298.682L145.792 296.047L178.484 302.078L171.87 304.516L139.391 298.682ZM145.12 295.396L151.516 292.734L152.156 292.859L145.729 295.51L145.12 295.396ZM146.677 295.682L153.099 293.036L186.083 299.281L179.443 301.724L146.677 295.682ZM152.401 292.38L158.818 289.708L159.495 289.844L153.047 292.505L152.401 292.38ZM153.984 292.677L160.427 290.026L193.698 296.479L187.036 298.927L153.984 292.677ZM159.703 289.339L166.141 286.667L166.854 286.807L160.385 289.474L159.703 289.339ZM161.318 289.656L167.781 286.995L201.323 293.677L194.651 296.13L161.318 289.656ZM167.01 286.307L173.479 283.62L174.229 283.766L167.724 286.448L167.01 286.307ZM168.661 286.635L175.151 283.964L208.969 290.87L202.281 293.333L168.661 286.635ZM174.349 283.266L180.854 280.563L181.635 280.724L175.104 283.417L174.349 283.266ZM176.021 283.604L182.547 280.911L216.625 288.052L209.911 290.526L176.021 283.604ZM181.714 280.203L188.234 277.495L189.057 277.667L182.51 280.365L181.714 280.203ZM183.417 280.563L189.958 277.87L224.286 285.234L217.552 287.714L183.417 280.563ZM552.271 254.333L545.62 256.073L386.75 196.87L393.677 194.021L552.271 254.333ZM392.24 191.635V65.5156L394.203 66.599V192.38L392.24 191.635ZM616.37 236.604V232.568L625.24 236.714L619.729 238.146L616.37 236.604ZM618.932 238.354L616.38 239.021V237.188L618.932 238.354ZM616.37 231.984V227.849L631.526 235.073L626.031 236.505L616.37 231.984ZM616.37 227.266V224.318L615.891 224.078L601.109 216.969V215.62L637.802 233.443L632.328 234.865L616.37 227.266ZM614.656 225.401V239.464L601.109 242.99V218.891L614.656 225.401ZM601.109 215.042V210.568L644.042 231.828L638.583 233.25L601.109 215.042ZM601.109 209.979V205.391L650.266 230.208L644.823 231.625L601.109 209.979ZM601.109 204.802V200.094L656.469 228.589L651.036 230L601.109 204.802ZM601.109 199.51V194.698L662.646 226.99L657.234 228.401L601.109 199.51ZM601.109 194.109V189.167L668.802 225.391L663.406 226.797L601.109 194.109ZM601.109 188.573V183.51L674.948 223.797L669.557 225.193L601.109 188.573ZM601.109 182.911V177.714L721.542 244.724V246.083L679.375 222.896L678.708 222.818L675.698 223.599L601.109 182.911ZM601.109 177.115V171.786L721.542 240.125V244.12L601.109 177.115ZM601.109 171.177V165.703L721.542 235.406V239.516L601.109 171.177ZM566.12 144.854L572.281 142.469L721.536 230.583V234.807L566.12 144.854ZM600.583 165.406V170.891L559.339 147.484L565.49 145.104L600.583 165.406ZM600.583 171.484V176.818L552.557 150.099L558.703 147.719L600.583 171.484ZM600.583 177.422V182.625L545.776 152.724L551.922 150.349L600.583 177.422ZM600.583 183.219V188.292L539.005 155.344L545.141 152.974L600.583 183.219ZM600.583 188.885V193.833L532.229 157.964L538.365 155.589L600.583 188.885ZM600.583 194.422V199.24L535.714 165.849L531.292 158.328L531.583 158.214L600.583 194.422ZM600.583 199.828V204.536L540.682 174.292L536.214 166.698L600.583 199.828ZM600.583 205.12V209.714L545.458 182.411L541.172 175.125L600.583 205.12ZM600.583 210.302V214.786L550.052 190.234L545.943 183.24L600.583 210.302ZM600.583 215.37V216.724L551.844 193.286L550.531 191.057L600.583 215.37ZM678.01 224.896V341.385L519.344 363.281L486.531 357.344V355.427L654.813 329.146L655.13 327.563L631.036 312.849L630.432 312.734L577.859 321.995L511.604 281.547L510.948 281.438L458.776 294.026L442.115 289.583V288.422H441.286V289.37L435.672 287.87L678.01 224.896ZM688.323 375.589V373.604C690.943 373.734 693.651 373.927 696.443 374.182C702.667 374.766 709.073 375.63 714.927 376.677V378.469H715.755V376.818C718.26 377.276 720.682 377.76 722.885 378.281C728.896 379.703 732.698 381.068 734.375 382.24C734.896 382.604 735.172 382.906 735.208 383.156C735.234 383.318 735.083 383.505 734.771 383.703C733.854 384.266 731.906 384.703 728.958 384.969C723.698 385.432 716.219 385.266 708.078 384.568H708.073C700.099 383.885 691.51 382.677 683.776 381.068C676.661 379.594 671.604 377.974 669.266 376.547C668.594 376.135 668.182 375.755 668.063 375.443C667.995 375.266 668.099 375.078 668.375 374.885C669.125 374.37 670.771 373.948 673.401 373.667C677.026 373.276 682 373.286 687.495 373.552V375.573H688.323V375.589ZM714.932 386.078V387.151L707.193 385.526C707.453 385.552 707.729 385.599 707.99 385.62C710.375 385.823 712.688 385.969 714.932 386.078ZM667.083 375.818C667.286 376.359 667.844 376.911 668.729 377.453C668.734 377.453 668.74 377.458 668.745 377.458L574.047 357.589L587.385 355.745L668.698 373.573C668.328 373.719 668.026 373.87 667.781 374.031C667.047 374.542 666.828 375.141 667.083 375.818ZM673.286 372.63C671.813 372.786 670.625 373 669.693 373.255L588.896 355.536L602.458 353.667L683.958 372.365C679.839 372.245 676.161 372.323 673.286 372.63ZM474.583 298.25L472.12 297.599L477.552 296.323V297.568L474.583 298.25ZM477.552 298.109V299.047L475.661 298.547L477.552 298.109ZM468.599 296.661L462.245 294.969L511.005 283.208L515.141 285.734L468.599 296.661ZM519.771 345.37C516.969 342.568 513.208 340.188 508.87 338.354V290.854L519.5 288.391L524.333 291.344V344.641L519.771 345.37ZM524.328 345.38V347.786L508.865 350.203V339.146C513.068 340.958 516.688 343.281 519.375 346.021L519.505 346.151L519.688 346.12L524.328 345.38ZM508.865 290.318V288.974L517.234 287.01L518.859 288.005L508.865 290.318ZM506.516 337.391C502.474 335.953 497.979 335 493.234 334.635L493.245 294.479L508.13 291.026V338.057C507.589 337.833 507.078 337.589 506.516 337.391ZM508.13 338.844V350.318L493.229 352.646L493.234 335.359C497.891 335.729 502.307 336.661 506.271 338.078C506.917 338.313 507.516 338.589 508.13 338.844ZM493.245 293.932V292.641L508.13 289.146V290.49L493.245 293.932ZM492.516 292.813V294.099L478.281 297.391V296.151L492.516 292.813ZM478.281 297.943L492.516 294.641L492.51 334.604C491.333 334.526 490.151 334.458 488.948 334.458C488.427 334.458 487.88 334.464 487.313 334.484C487.042 334.49 486.792 334.505 486.531 334.516V301.448L485.875 301.276L478.286 299.255V297.943H478.281ZM492.51 335.333L492.505 352.76L486.531 353.688V335.245C486.797 335.229 487.073 335.214 487.339 335.208C487.839 335.188 488.38 335.182 488.948 335.182C490.151 335.182 491.333 335.255 492.51 335.333ZM591.083 378.266V447.776L408.484 438.615V345.24L591.083 378.266ZM541.214 342.667V345.151L525.063 347.667V345.255L541.214 342.667ZM525.063 344.521V291.786L541.214 301.646V341.927L525.063 344.521ZM558.797 339.839V342.406L541.948 345.031V342.547L558.797 339.839ZM541.948 341.813V302.099L558.797 312.385V339.109L541.948 341.813ZM577.156 336.896V339.542L559.521 342.292V339.724L577.156 336.896ZM559.526 338.99V312.828L577.161 323.589V336.161L559.526 338.99ZM617.063 329.745L617.057 321.964L637.063 318.557L637.281 318.688L637.292 326.495L617.063 329.745ZM637.292 327.245V330.156L617.063 333.313V330.495L637.292 327.245ZM588.755 325.047L581.609 323.089L630.406 314.5L634.823 317.198L588.755 325.047ZM597.047 332.964V325.38L616.328 322.099V329.865L597.047 332.964ZM616.333 330.604V333.422L597.057 336.432V333.693L616.333 330.604ZM588.495 326.755L588.865 326.771L596.323 325.5V333.078L577.885 336.042V323.859L588.495 326.755ZM596.323 333.813V336.547L577.885 339.422V336.776L596.323 333.813ZM648.365 325.458L652.224 327.813L638.005 330.036V327.125L648.365 325.458ZM638.01 326.385V319.141L647.406 324.875L638.01 326.385ZM538.323 259.302L530.75 261.266L529.542 260.833L537.094 258.849L538.323 259.302ZM537.979 258.625L545.594 256.625L546.833 257.083L539.203 259.068L537.979 258.625ZM437.938 284.318L410.115 276.438L417.281 274.401L445.078 282.448L442.12 283.224V283.099H441.292V283.443L437.938 284.318ZM441.292 283.979V284.521L439.911 284.88L438.938 284.604L441.292 283.979ZM353.276 247.755V245.484L432.495 269.427L425.271 271.49L345.755 247.964L352.443 245.563V247.75H353.276V247.755ZM442.12 269.656V267.536L469.594 276.016L462.38 277.906L434.531 269.49L441.297 267.568V269.656H442.12ZM461.391 278.167L454.214 280.052L426.365 271.813L433.578 269.76L461.391 278.167ZM453.219 280.313L446.057 282.193L418.219 274.13L425.411 272.083L453.219 280.313ZM353.141 250.698H352.443V253.365H353.271V250.74L424.313 271.766L417.109 273.818L337.745 250.833L344.917 248.271L353.141 250.698ZM416.167 274.078L408.995 276.125L329.781 253.682L336.906 251.135L416.167 274.078ZM442.12 283.766L446.057 282.734L447.052 283.021L442.12 284.307V283.766ZM447.047 282.474L454.198 280.599L455.214 280.901L448.047 282.766L447.047 282.474ZM455.193 280.344L462.359 278.458L463.401 278.771L456.214 280.641L455.193 280.344ZM463.339 278.203L470.542 276.313L471.609 276.641L464.385 278.516L463.339 278.203ZM471.505 276.057L478.745 274.156L479.828 274.5L472.573 276.391L471.505 276.057ZM479.703 273.911L486.979 272L488.083 272.359L480.797 274.255L479.703 273.911ZM487.922 271.75L495.25 269.828L496.38 270.203L489.042 272.109L487.922 271.75ZM496.177 269.583L503.536 267.661L504.682 268.047L497.313 269.964L496.177 269.583ZM504.464 267.417L511.87 265.469L513.042 265.865L505.615 267.797L504.464 267.417ZM512.781 265.229L520.234 263.281L521.417 263.693L513.958 265.63L512.781 265.229ZM521.146 263.042L528.641 261.078L529.844 261.505L522.333 263.453L521.146 263.042ZM528.667 260.526L369.995 203.771L377.615 200.635L536.224 258.542L528.667 260.526ZM527.76 260.76L520.255 262.729L361.714 207.172L369.271 204.068L527.76 260.76ZM519.344 262.964L511.885 264.922L353.484 210.563L360.979 207.479L519.344 262.964ZM510.969 265.161L503.547 267.109L345.318 213.917L352.75 210.865L510.969 265.161ZM502.625 267.354L495.26 269.286L337.208 217.26L344.578 214.234L502.625 267.354ZM494.328 269.531L486.995 271.458L329.146 220.583L336.458 217.578L494.328 269.531ZM486.052 271.703L478.771 273.615L321.141 223.875L328.401 220.891L486.052 271.703ZM477.807 273.865L470.552 275.766L313.177 227.151L320.38 224.182L477.807 273.865ZM440.703 267.094L433.438 269.167L305.26 230.417L312.417 227.474L440.703 267.094ZM351.974 245.089L344.76 247.672L297.385 233.661L304.495 230.734L351.974 245.089ZM343.917 247.974L336.74 250.542L289.547 236.88L296.609 233.974L343.917 247.974ZM335.901 250.844L328.771 253.396L281.76 240.078L288.776 237.193L335.901 250.844ZM327.917 253.703L320.818 256.245L274 243.276L280.969 240.406L327.917 253.703ZM320.984 256.833L363.594 268.641L320.297 257.083L320.984 256.833ZM321.839 256.526L328.932 253.99L408.036 276.396L400.891 278.427L321.839 256.526ZM409.161 276.708L436.948 284.578L430.078 286.38L416.75 282.823L402.016 278.74L409.161 276.708ZM437.948 284.865L438.917 285.141L432.083 286.917L431.115 286.656L437.948 284.865ZM547.719 256.859L546.474 256.401L553.115 254.656L554.365 255.135L547.719 256.859ZM544.734 256.307L537.115 258.302L378.339 200.333L386.036 197.161L544.734 256.307ZM377.609 200.068L376.078 199.51L383.76 196.323L385.318 196.901L377.609 200.068ZM376.896 200.365L369.266 203.5L367.76 202.964L375.37 199.797L376.896 200.365ZM368.531 203.807L360.969 206.922L359.484 206.401L367.026 203.271L368.531 203.807ZM360.24 207.224L352.74 210.307L351.281 209.807L358.766 206.703L360.24 207.224ZM352.005 210.609L344.557 213.672L343.125 213.193L350.547 210.109L352.005 210.609ZM343.823 213.974L336.448 217.01L335.042 216.547L342.396 213.49L343.823 213.974ZM335.698 217.318L328.38 220.333L327 219.885L334.302 216.854L335.698 217.318ZM327.625 220.641L320.359 223.63L319 223.203L326.245 220.198L327.625 220.641ZM319.604 223.948L312.391 226.917L311.068 226.505L318.255 223.521L319.604 223.948ZM311.625 227.229L304.464 230.177L303.161 229.781L310.302 226.818L311.625 227.229ZM303.698 230.49L296.583 233.417L295.307 233.036L302.396 230.094L303.698 230.49ZM295.813 233.734L288.75 236.641L287.505 236.281L294.547 233.359L295.813 233.734ZM287.969 236.958L280.948 239.849L279.734 239.5L286.729 236.599L287.969 236.958ZM280.161 240.182L273.188 243.052L272 242.729L278.948 239.844L280.161 240.182ZM272.396 243.375L265.464 246.229L264.307 245.917L271.214 243.047L272.396 243.375ZM264.667 246.557L257.776 249.391L256.651 249.089L263.51 246.24L264.667 246.557ZM256.964 249.724L250.115 252.542L249.021 252.26L255.849 249.432L256.964 249.724ZM249.307 252.875L242.49 255.682L241.427 255.411L248.219 252.594L249.307 252.875ZM241.677 256.021L234.896 258.807L233.87 258.547L240.615 255.75L241.677 256.021ZM234.083 259.146L227.333 261.917L226.333 261.672L233.052 258.885L234.083 259.146ZM226.51 262.26L219.802 265.026L218.833 264.797L225.51 262.026L226.51 262.26ZM218.964 265.365L212.292 268.109L211.365 267.896L218.01 265.135L218.964 265.365ZM211.453 268.458L204.807 271.193L203.911 270.99L210.521 268.245L211.453 268.458ZM203.969 271.536L197.349 274.26L196.484 274.073L203.068 271.339L203.969 271.536ZM196.495 274.615L189.911 277.323L189.083 277.146L195.635 274.422L196.495 274.615ZM190.818 277.516L197.391 274.813L231.969 282.411L225.203 284.896L190.818 277.516ZM198.245 274.453L204.854 271.74L239.661 279.583L232.875 282.068L198.245 274.453ZM205.698 271.391L212.339 268.661L247.385 276.75L240.578 279.255L205.698 271.391ZM213.172 268.313L219.844 265.568L255.12 273.901L248.286 276.411L213.172 268.313ZM220.672 265.229L227.37 262.469L262.87 271.052L256.01 273.578L220.672 265.229ZM228.198 262.13L234.943 259.359L270.651 268.198L263.766 270.729L228.198 262.13ZM235.76 259.021L242.531 256.234L278.448 265.323L271.531 267.865L235.76 259.021ZM243.344 255.896L250.146 253.094L286.271 262.453L279.313 265.01L243.344 255.896ZM250.958 252.76L257.797 249.943L294.109 259.563L287.13 262.13L250.958 252.76ZM258.609 249.609L265.49 246.776L301.99 256.667L294.974 259.245L258.609 249.609ZM266.292 246.453L273.219 243.604L319.964 256.552L319.25 256.807L309.307 254.156L308.781 254.182L302.849 256.365L266.292 246.453ZM407.495 440.547L567.656 448.583L559.578 448.833L396.708 441.115L407.495 440.547ZM561.302 467.365L564.135 472.604V489.635H559.823V450.807L561.266 450.766V467.229L561.302 467.365ZM559.094 450.833V489.635H557.156V450.896L559.094 450.833ZM552.828 449.047L535.891 449.573L373.771 442.318L391.406 441.396L552.828 449.047ZM556.109 450.927V489.635H527.448V451.818L556.109 450.927ZM528.927 449.786L512.203 450.307L351.057 443.505L368.391 442.594L528.927 449.786ZM526.911 451.828V489.63H525.016V451.88L526.911 451.828ZM524.297 451.911V489.635H516.922L508.578 483.557L508.37 483.484H505.349V452.495L524.297 451.911ZM504.818 452.51V483.484H503.51V452.552L504.818 452.51ZM503.51 484.219H508.245L516.589 490.286L516.802 490.365H628.083L635.948 494.083H503.51V484.219ZM644.828 393.198L593.073 384.542V383.583L687.495 399.672V402.13L645.286 395.208V393.271L644.828 393.198ZM646.266 409.422L645.286 409.292V407.271L655.839 408.75L646.266 409.422ZM658.359 408.573L645.286 406.74V404.599L667.932 407.901L658.359 408.573ZM670.396 407.734L645.286 404.073V401.797L680.01 407.063L670.396 407.734ZM687.495 406.531L682.411 406.891L645.286 401.266V398.844L687.495 405.495V406.531ZM688.323 406.474V405.625L692.036 406.219L688.323 406.474ZM694.354 406.047L688.323 405.099V404.969H687.484V404.974L645.281 398.318V395.75L704.026 405.375L694.354 406.047ZM706.302 405.214L687.724 402.172H688.328V399.818L701.214 402.021V403.063H702.042V402.156L716 404.536L706.302 405.214ZM718.214 404.38L702.036 401.625V400.443H701.208V401.479L593.068 383.042V379.766L687.484 396.521V396.854H688.323V396.672L714.927 401.396V402.516H715.755V401.547L727.922 403.708L718.214 404.38ZM730.094 403.542L715.76 401V400.229H714.932V400.859L688.328 396.141V394.333H687.495V395.995L593.073 379.24V376.63L592.25 376.484L525.135 364.344L528.729 363.849L701.214 395.729V397.557H702.042V395.88L739.844 402.865L730.094 403.542ZM741.922 402.714L702.036 395.344V394.932H701.208V395.193L530.375 363.615L543.161 361.849L687.484 389.661V391.547H688.323V389.828L751.693 402.036L741.922 402.714ZM753.75 401.88L702.036 391.917V389.427H701.208V391.76L688.323 389.276V389.01H687.484V389.115L544.792 361.62L557.755 359.828L687.484 385.911V386.219H688.323V386.078L714.927 391.432V392.896H715.755V391.589L763.526 401.193L753.75 401.88ZM765.505 401.057L715.755 391.057V390.604H714.927V390.891L688.323 385.542V383.688H687.484V385.375L559.333 359.615L572.495 357.797L670.651 378.391C673.453 379.615 677.828 380.901 683.563 382.099C689.198 383.281 695.24 384.141 701.214 384.844V386.536H702.042V384.99L714.938 387.698V388.094H715.766V387.875L775.37 400.38L765.505 401.057ZM777.271 400.229L715.755 387.323V386.109C719.599 386.281 723.12 386.302 726.161 386.167L787.156 399.542L777.271 400.229ZM789.021 399.417L728.146 386.068C728.427 386.047 728.776 386.042 729.052 386.016C732.167 385.74 734.266 385.25 735.323 384.594C735.505 384.474 735.589 384.344 735.719 384.214L798.927 398.714L789.021 399.417ZM800.734 398.594L736.109 383.776C736.234 383.536 736.297 383.281 736.25 383.005C736.161 382.464 735.745 381.922 734.969 381.385C733.188 380.146 729.271 378.714 723.13 377.266C715.573 375.474 705.802 374 696.547 373.141C693.193 372.828 689.964 372.625 686.875 372.49L603.917 353.469L617.677 351.568L810.661 397.896L800.734 398.594ZM812.401 397.771L619.104 351.365L633.078 349.438L822.401 397.068L812.401 397.771ZM824.078 396.948L634.464 349.25L648.625 347.292L834.109 396.245L824.078 396.948ZM835.724 396.135L649.984 347.104L664.375 345.12L845.792 395.432L835.724 396.135ZM847.349 395.318L665.688 344.938L678.859 343.125L855.672 394.74L847.349 395.318ZM859.927 324.286V394.068L679.844 341.505V225.255L859.927 324.286ZM722.063 246.375V245.021L737.443 253.578L735.802 253.927L722.063 246.375ZM738.229 253.406L722.068 244.417V240.427L743.109 252.359L738.229 253.406ZM743.865 252.193L722.063 239.818V235.714L748.719 251.141L743.865 252.193ZM749.49 250.979L722.068 235.109V230.891L754.339 249.938L749.49 250.979ZM755.083 249.776L572.896 142.224L579.078 139.833L759.901 248.734L755.083 249.776ZM760.651 248.578L579.703 139.594L585.88 137.203L765.448 247.542L760.651 248.578ZM766.203 247.385L586.495 136.964L592.688 134.568L770.984 246.349L766.203 247.385ZM771.729 246.198L593.302 134.333L599.505 131.938L776.49 245.167L771.729 246.198ZM777.219 245.01L600.115 131.698L606.328 129.297L781.974 243.99L777.219 245.01ZM782.703 243.833L606.932 129.063L613.156 126.656L787.443 242.807L782.703 243.833ZM788.156 242.656L613.76 126.422L620 124.005L792.891 241.635L788.156 242.656ZM793.594 241.484L620.583 123.781L626.839 121.359L798.302 240.469L793.594 241.484ZM634.24 25.9792L804.313 178.307V238.292L634.24 117.557V25.9792ZM633.339 118.849L803.193 239.422L799.01 240.323L627.438 121.141L633.339 118.849ZM489.599 95.3073L489.781 95.224L498.677 100.453L498.984 99.9271L490.443 94.901L632.661 25.4844V117.417L530.484 156.953L523.021 144.255L522.688 143.938L489.599 126.125V95.3073ZM521.667 145.333L550.5 194.375L550.87 194.724L600.589 218.635V243.125L573.651 250.125L491.484 217.25L466.505 180.745L466.391 180.651L432.802 165.88C432.859 165.698 433.016 165.568 433.016 165.365C433.016 164.792 432.786 164.266 432.406 163.891C432.031 163.516 431.51 163.281 430.938 163.281C430.365 163.281 429.839 163.516 429.464 163.891C429.089 164.266 428.854 164.792 428.854 165.365C428.854 165.938 429.089 166.458 429.464 166.833C429.839 167.214 430.365 167.443 430.938 167.443C431.51 167.443 432.031 167.214 432.406 166.833C432.526 166.708 432.516 166.51 432.604 166.365L451.802 174.802L477.177 215.177L477.302 215.286L524.365 233.891L524.453 233.911L532.495 234.219L572.797 250.344L557.255 254.385L394.74 192.583V66.8906L421.115 81.4479V91.1979L421.568 91.4427L521.667 145.333ZM531.031 233.641L524.51 233.385L477.563 214.828L452.646 175.182L466.109 181.099L491.089 217.604L491.214 217.703L531.031 233.641ZM432.49 165.365C432.49 165.792 432.313 166.182 432.031 166.464C431.75 166.745 431.359 166.922 430.932 166.922C430.5 166.922 430.109 166.745 429.828 166.464C429.552 166.182 429.375 165.792 429.375 165.365C429.375 164.938 429.552 164.547 429.828 164.266C430.109 163.984 430.5 163.813 430.932 163.813C431.359 163.813 431.75 163.984 432.031 164.266C432.313 164.547 432.49 164.932 432.49 165.365ZM488.984 95.6042V125.797L459.573 109.964L488.984 95.6042ZM488.156 94.2604L457.87 109.042L422.828 90.1771V80.4323L422.385 80.1771L391.792 63.2917L391.688 63.2344V37.5156L488.156 94.2604ZM389.641 20.7865C389.193 20.3385 388.917 19.724 388.917 19.0469C388.917 18.3698 389.193 17.7552 389.641 17.3073C390.083 16.8646 390.698 16.5885 391.375 16.5885C392.057 16.5885 392.677 16.8646 393.115 17.3073C393.557 17.7552 393.839 18.3698 393.839 19.0469C393.839 19.724 393.563 20.3437 393.115 20.7865C392.672 21.224 392.057 21.5052 391.375 21.5052C390.698 21.5 390.083 21.224 389.641 20.7865ZM391.391 193.151L392.958 193.75L386.026 196.604L384.474 196.026L391.391 193.151ZM109.542 248.635L366.599 102.547V104.141L110.135 248.766L109.542 248.635ZM110.906 248.932L366.599 104.734V146.953L220.552 219.818L220.609 220.427L225.313 221.714V250.198L188.74 266.083L110.906 248.932ZM347.573 167.833L347.396 167.922V197.156L343.385 198.901V169.859L342.943 170.073L318.005 182.057L317.828 182.146V210L314.219 211.573L314.224 184.375V183.88L313.786 184.094L291.026 195.036L290.859 195.125V221.719L287.615 223.13L287.62 197.172V196.688L287.177 196.896L266.339 206.922L266.161 207.005V232.448L263.234 233.724V208.406L262.797 208.62L243.667 217.828L243.495 217.911V242.297L240.938 243.406V217.401L366.589 156.391V158.688L347.573 167.833ZM366.599 159.359V188.813L348.01 196.885V168.302L366.599 159.359ZM342.76 170.828V199.167L318.438 209.74V182.536L342.76 170.828ZM313.615 184.849L313.604 211.833L291.474 221.448V195.5L313.615 184.849ZM287.016 197.651L287.005 223.396L266.781 232.177V207.38L287.016 197.651ZM262.635 209.375V233.979L244.12 242.026V218.286L262.635 209.375ZM240.573 217L240.422 217.068V243.63L226.359 249.745V220.37L366.599 151.078V155.797L240.573 217ZM225.599 219.573L225.307 219.719V221.036L221.609 220.016L366.599 147.688V149.911L225.599 219.573ZM108.042 303.021L369.807 189.286L370.328 189.063V188.495L370.302 99.9427V98.4635L369.016 99.1927L108.042 247.51V241.729L226.271 172.245L226.698 171.995V164.281L390.516 65.5781V191.646L108.042 308.927V303.021ZM368.578 103.625L368.589 145.964L367.12 146.693V104.438L368.578 103.625ZM367.125 103.839V102.245L368.578 101.422V103.021L367.125 103.839ZM368.594 146.698V148.927L367.125 149.651V147.432L368.594 146.698ZM368.594 150.094V154.828L367.125 155.547V150.823L368.594 150.094ZM368.594 155.411V157.719L367.125 158.427V156.13L368.594 155.411ZM368.594 158.396L368.604 187.938L367.12 188.583V159.109L368.594 158.396ZM110.313 309.849L115.255 307.797L115.698 307.87L110.724 309.917L110.313 309.849ZM111.708 310.073L116.677 308.036L148.135 313.229L143.016 315.12L111.708 310.073ZM20.3385 362.083L308.203 256.25V347.667L20.3385 408.823V362.083ZM157.13 417.198L25.9688 409.422L30.4896 408.469L161.328 416.661L157.13 417.198ZM164.094 416.297L32.3958 408.057L41.1719 406.188L174.599 414.932L164.094 416.297ZM181.135 414.089L177.318 414.583L43.0833 405.792L51.9375 403.901L181.141 412.755V414.089H181.135ZM181.135 412.234L53.7969 403.51L62.7552 401.604L181.135 410.089V412.234ZM181.135 409.557L64.6042 401.214L73.6354 399.297L181.135 407.328V409.557ZM181.135 406.802L75.4792 398.901L84.6042 396.964L181.135 404.484V406.802ZM181.135 403.958L86.4063 396.578L95.625 394.62L181.135 401.557V403.958ZM181.135 401.042L97.4323 394.24L106.729 392.266L181.135 398.557V401.042ZM181.135 398.021L108.5 391.885L117.906 389.891L181.135 395.448V398.021ZM181.135 394.917L119.672 389.521L129.182 387.5L181.135 392.24V394.917ZM181.135 391.714L130.911 387.13L140.552 385.083L181.141 388.943V391.714H181.135ZM181.948 385.62L181.135 385.771V388.406L142.234 384.719L151.974 382.646L182 385.609L181.948 385.62ZM153.667 382.297L163.49 380.208L194.094 383.333L183.828 385.271L153.667 382.297ZM183.125 387.417L406.5 345.245V438.615L183.125 450.307V387.417ZM207.427 451.021L211.073 450.833L286.38 453.005V453.089L207.427 451.021ZM283.292 461.276L286.375 461.177V490.771H283.292V461.276ZM280.807 473.333L282.563 473.271V490.771H280.807V473.333ZM687.536 496.411H150.833V491.505H394.214L402.974 494.786L403.104 494.813H687.547V496.411H687.536ZM687.536 494.078H637.651L628.318 489.661L628.167 489.63H620.432V487.224H643.609L652.083 491.599L652.255 491.641H687.542V494.078H687.536ZM687.536 490.922H652.339L643.854 486.542L643.693 486.505H621.984V476.594H687.536V490.922ZM715.708 496.411V494.016H728.609L735.333 496.411H715.708ZM737.5 496.411L728.781 493.307L728.656 493.286H715.703V476.594H728.63L774.547 493.135L774.667 493.161H824.719L832.594 496.417H737.5V496.411ZM650.906 50.0417L649.599 48.8958V119.193L649.927 119.432L773.536 210.026V210.104H773.635L796.776 227.057L798.031 227.974V178.417L797.76 178.182L650.906 50.0417ZM662.203 126.479L651.182 118.396V94.0677L662.214 102.714L662.203 126.479ZM662.214 102.042L651.182 93.3958V90.7135L662.214 99.4583V102.042ZM664.823 128.401L662.734 126.87V103.12L664.823 104.76V128.401ZM664.823 104.089L662.734 102.453V99.8646L664.823 101.521V104.089ZM694.297 149.99L670.641 132.651V109.323L694.297 127.87V149.99ZM694.297 127.208L670.641 108.656V106.135L694.297 124.88V127.208ZM696.656 151.724L694.823 150.38V128.286L696.656 129.724V151.724ZM696.656 129.057L694.823 127.62V125.297L696.656 126.75V129.057ZM722.323 170.536L701.797 155.5V133.771L722.323 149.859V170.536ZM722.323 149.188L701.797 133.099V130.839L722.323 147.104V149.188ZM724.453 172.099L722.849 170.922V150.266L724.453 151.531V172.099ZM724.453 150.865L722.849 149.604V147.521L724.453 148.792V150.865ZM747.036 188.646L729.089 175.49L729.068 155.146L747.036 169.24V188.646ZM747.036 168.573L729.068 154.479V152.458L747.036 166.703V168.573ZM748.969 190.057L747.563 189.031V169.651L748.969 170.755V190.057ZM748.969 170.094L747.563 168.99V167.125L748.969 168.234V170.094ZM768.979 204.729L753.151 193.13V174.036L768.979 186.458V204.729ZM768.979 185.786L753.151 173.37V171.536L768.979 184.083V185.786ZM770.734 206.016L769.505 205.115V186.865L770.734 187.833V206.016ZM770.734 187.167L769.505 186.198V184.5L770.734 185.479V187.167ZM773.542 208.068L771.469 206.552V185.135L771.339 185.021L753.016 170.5L752.422 170.031V192.594L749.703 190.604V167.891L749.568 167.776L728.938 151.422L728.344 150.953V151.703L728.359 174.964L725.193 172.641V148.453L725.052 148.344L701.667 129.797L701.078 129.328V154.964L697.385 152.255V126.396L697.255 126.292L670.51 105.099L669.917 104.63V132.125L665.557 128.932V101.177L665.427 101.068L651.188 89.7917V87.5156L773.542 185.365V208.068ZM651.182 86.1146V54.474L794.714 178.896L774.198 184.495L651.182 86.1146ZM795.26 223.99L774.635 208.875V185.51L795.26 179.88V223.99ZM651.182 53.7813V52.3594L795.833 178.589L795.323 178.724L651.182 53.7813ZM796.453 224.87L795.792 224.38V179.745L796.453 179.563V224.87ZM23.0885 366.766L22.4896 366.964V402.646L23.5625 402.396L295.292 338.875L295.969 338.719V273.896L294.807 274.292L23.0885 366.766ZM25.5521 400.13L24.2396 400.438V368.276L25.5521 368.406V400.13ZM69.6979 389.807L26.0833 400.005V368.453L69.6979 372.703V389.807ZM171.266 366.068L70.8854 389.531V372.615L171.266 343.839V366.068ZM171.266 342.609L70.2344 371.573L26.8281 367.344L238.094 295.438L246.724 297.255L246.859 297.24L289.51 283.073V293.401L165.88 332.151L165.932 332.792L171.26 333.563V342.609H171.266ZM171.266 332.188V332.901L167.464 332.349L289.516 294.089V295.552L171.484 332.115L171.266 332.188ZM191.797 361.266L174.828 365.234V334.656L178.135 333.651L191.802 335.672L191.797 361.266ZM191.807 335.146L179.313 333.292L191.807 329.5V335.146ZM214.458 355.969L195.818 360.328V336.271L214.464 339.036L214.458 355.969ZM214.464 338.5L195.818 335.74V328.286L214.469 322.625L214.464 338.5ZM232.995 351.635L218.776 354.953V339.667L232.995 341.776V351.635ZM239.339 350.156L233.521 351.516V325.651L239.339 323.979V350.156ZM239.339 323.432L233.193 325.198L232.995 325.255V341.25L218.776 339.141V321.307L239.328 315.068V323.432H239.339ZM266.776 343.734L260.24 345.266V343.245L266.776 341.672V343.734ZM266.776 341.042L259.87 342.703L259.63 342.76V345.411L244.026 349.057V322.635L266.781 316.109V341.042H266.776ZM266.776 315.573L244.021 322.089V313.651L266.776 306.74V315.573ZM271.156 342.714L267.51 343.563V341.495L271.156 340.615V342.714ZM271.156 304.651V339.99L267.51 340.865V305.755L267.042 305.901L243.557 313.031L243.292 313.109V349.229L240.057 349.984V314.089L239.589 314.229L218.302 320.688L218.036 320.766V355.13L215.172 355.797L215.188 322.135V321.641L214.714 321.781L195.333 327.672L195.078 327.745V360.5L192.516 361.104L192.521 329.021V328.531L192.052 328.667L174.354 334.047L174.099 334.12V365.411L171.88 365.922V332.641L289.516 296.193V299.073L271.417 304.573L271.156 304.651ZM271.885 314.104V305.193L289.516 299.833V309.052L271.885 314.104ZM289.516 309.599V335.563L271.885 339.813V314.651L289.516 309.599ZM294.208 337.328L271.885 342.542V340.438L294.208 335.063V337.328ZM294.208 334.427L290.042 335.432V309.448L294.208 308.255V334.427ZM294.208 307.703L290.042 308.896V299.672L294.208 298.406V307.703ZM294.208 297.651L290.042 298.917V296.036L294.208 294.745V297.651ZM294.208 294.104L290.042 295.396V293.927L294.208 292.625V294.104ZM294.208 291.938L290.042 293.245V282.354L289.698 282.474L246.771 296.734L239.073 295.115L294.208 276.344V291.938ZM581.875 439.219L582.938 439.292V384.87L582.099 384.734L424.943 359.161L423.797 358.979V360.146L423.776 427.495V428.417L424.698 428.49L581.875 439.219ZM447.75 428.068L445.401 427.911L445.411 378.87L447.766 379.203L447.75 428.068ZM447.771 378.667L445.417 378.339V375.818L447.771 376.167V378.667ZM474.828 429.917L453.13 428.438V410L474.828 412.104V429.917ZM474.828 411.578L453.13 409.469V379.953L474.828 383.01V411.578ZM474.828 382.479L453.13 379.427V376.943L474.828 380.094V382.479ZM477.469 430.094L475.349 429.958V383.089L477.469 383.38V430.094ZM477.469 382.854L475.349 382.552V380.177L477.469 380.484V382.854ZM502.313 431.797L482.464 430.438V412.844L485.75 413.172V425.953L485.995 425.974L502.313 427.24V431.797ZM502.313 426.708L486.276 425.469V412.693L486.042 412.667L482.464 412.318V384.083L502.313 386.875V426.708ZM502.313 386.354L482.464 383.557V381.208L502.313 384.099V386.354ZM504.745 431.958L502.828 431.828V386.953L504.745 387.224V431.958ZM504.745 386.703L502.828 386.432V384.172L504.745 384.453V386.703ZM527.599 433.521L509.391 432.276V427.786L527.599 429.193V433.521ZM527.599 428.672L509.391 427.25L509.38 387.88L527.599 390.448V428.672ZM527.599 389.922L509.38 387.349V385.125L527.599 387.776V389.922ZM529.854 433.672L528.125 433.552V390.521L529.854 390.76V433.672ZM529.854 390.24L528.125 389.995V387.854L529.854 388.104V390.24ZM550.938 435.115L534.188 433.974V429.698L550.938 430.99V435.115ZM550.938 430.479L534.188 429.177V391.38L550.938 393.74V430.479ZM550.938 393.208L534.188 390.849V388.734L550.938 391.177V393.208ZM553.016 435.26L551.464 435.146V431.036L553.016 431.161V435.26ZM553.016 430.635L551.464 430.516V393.807L553.016 394.016V430.635ZM553.016 393.505L551.464 393.286V391.25L553.016 391.479V393.505ZM579.911 386.589L580.651 386.505L580.953 386.557V437.167L579.911 437.094V386.589ZM579.385 437.063L557.286 435.552V388.927L579.385 386.641V437.063ZM425.781 361.297L575.698 385.698L556.656 387.667L425.771 367.896L425.781 361.297ZM425.771 369.219L555.979 388.896V435.469L553.75 435.318V390.849L553.432 390.807L533.875 387.958L533.464 387.896V433.927L530.589 433.729V387.479L530.271 387.427L509.068 384.349L508.651 384.286V384.703L508.672 432.229L505.479 432.016V383.823L505.167 383.771L482.146 380.427L481.734 380.365V430.391L478.214 430.151V379.854L477.891 379.802L452.818 376.156L452.396 376.094V428.38L448.479 428.109L448.49 375.844V375.526L448.177 375.479L425.771 372.214V369.219ZM425.771 372.964L444.891 375.745V378.26L425.771 375.563V372.964ZM425.771 376.104L444.891 378.797L444.88 408.677L425.76 406.818L425.771 376.104ZM425.766 407.339L444.891 409.203V427.875L425.766 426.568V407.339ZM905.995 497.333H908.682V496.505H905.995V497.333ZM900.344 497.333H903.031V496.505H900.344V497.333ZM911.656 497.333H914.344V496.505H911.656V497.333ZM939.932 497.333H942.62V496.505H939.932V497.333ZM934.276 497.333H936.964V496.505H934.276V497.333ZM928.62 497.333H931.307V496.505H928.62V497.333ZM922.964 497.333H925.651V496.505H922.964V497.333ZM917.307 497.333H919.995V496.505H917.307V497.333ZM894.682 497.333H897.375V496.505H894.682V497.333ZM849.438 497.333H852.13V496.505H849.438V497.333ZM866.417 497.333H869.099V496.505H866.417V497.333ZM872.063 497.333H874.755V496.505H872.063V497.333ZM855.104 497.333H857.786V496.505H855.104V497.333ZM883.385 497.333H886.068V496.505H883.385V497.333ZM843.792 497.333H846.474V496.505H843.792V497.333ZM889.031 497.333H891.719V496.505H889.031V497.333ZM860.75 497.333H863.438V496.505H860.75V497.333ZM1058.7 497.333H1061.38V496.505H1058.7V497.333ZM945.589 497.333H948.276V496.505H945.589V497.333ZM1030.43 497.333H1033.11V496.505H1030.43V497.333ZM1041.73 497.333H1044.42V496.505H1041.73V497.333ZM1036.08 497.333H1038.77V496.505H1036.08V497.333ZM1047.39 497.333H1050.08V496.505H1047.39V497.333ZM1053.05 497.333H1055.73V496.505H1053.05V497.333ZM1013.45 497.333H1016.14V496.505H1013.45V497.333ZM1007.8 497.333H1010.49V496.505H1007.8V497.333ZM1024.77 497.333H1027.45V496.505H1024.77V497.333ZM1064.36 496.505V497.333H1067.05V496.505H1064.36ZM1019.11 497.333H1021.8V496.505H1019.11V497.333ZM985.182 497.333H987.87V496.505H985.182V497.333ZM1002.15 497.333H1004.83V496.505H1002.15V497.333ZM973.87 497.333H976.552V496.505H973.87V497.333ZM962.557 497.333H965.245V496.505H962.557V497.333ZM956.901 497.333H959.589V496.505H956.901V497.333ZM968.208 497.333H970.896V496.505H968.208V497.333ZM990.833 497.333H993.521V496.505H990.833V497.333ZM979.521 497.333H982.208V496.505H979.521V497.333ZM996.49 497.333H999.177V496.505H996.49V497.333ZM951.24 497.333H953.932V496.505H951.24V497.333ZM877.719 497.333H880.406V496.505H877.719V497.333ZM702.036 466.552H701.208V469.172H702.036V466.552ZM702.036 472.063H701.208V474.682H702.036V472.063ZM702.036 461.042H701.208V463.661H702.036V461.042ZM702.036 455.536H701.208V458.151H702.036V455.536ZM701.208 491.203H702.036V488.589H701.208V491.203ZM702.036 483.083H701.208V485.698H702.036V483.083ZM702.036 378.406H701.208V381.021H702.036V378.406ZM702.036 450.026H701.208V452.641H702.036V450.026ZM702.036 477.573H701.208V480.188H702.036V477.573ZM702.036 416.969H701.208V419.583H702.036V416.969ZM702.036 433.495H701.208V436.115H702.036V433.495ZM702.036 411.458H701.208V414.073H702.036V411.458ZM702.036 439.005H701.208V441.62H702.036V439.005ZM702.036 422.474H701.208V425.094H702.036V422.474ZM702.036 444.516H701.208V447.13H702.036V444.516ZM702.036 427.984H701.208V430.604H702.036V427.984ZM715.76 433.885H714.932V436.167H715.76V433.885ZM715.76 429.078H714.932V431.365H715.76V429.078ZM715.76 414.651H714.932V416.927H715.76V414.651ZM715.76 424.266H714.932V426.547H715.76V424.266ZM714.932 469.828H715.76V467.552H714.932V469.828ZM715.76 453.12H714.932V455.401H715.76V453.12ZM715.76 457.932H714.932V460.214H715.76V457.932ZM715.76 462.74H714.932V465.016H715.76V462.74ZM715.76 409.844H714.932V412.13H715.76V409.844ZM715.76 438.693H714.932V440.974H715.76V438.693ZM715.76 443.505H714.932V445.786H715.76V443.505ZM715.76 448.313H714.932V450.589H715.76V448.313ZM715.76 419.464H714.932V421.745H715.76V419.464ZM715.76 380.99H714.932V383.271H715.76V380.99ZM715.76 395.417H714.932V397.703H715.76V395.417ZM687.495 380.901H688.328V378.38H687.495V380.901ZM688.323 442.182H687.484V444.703H688.323V442.182ZM688.323 410.276H687.484V412.802H688.323V410.276ZM687.495 460.656H688.328V458.13H687.495V460.656ZM688.323 447.5H687.484V450.021H688.323V447.5ZM688.323 415.599H687.484V418.12H688.323V415.599ZM688.323 426.229H687.484V428.75H688.323V426.229ZM688.323 436.859H687.484V439.38H688.323V436.859ZM688.323 431.552H687.484V434.073H688.323V431.552ZM688.323 420.911H687.484V423.438H688.323V420.911ZM688.323 452.813H687.484V455.333H688.323V452.813ZM791.089 490.651H794.995V486.75H791.089V490.651ZM794.995 468.016H791.089V471.911H794.995V468.016ZM794.995 477.38H791.089V481.276H794.995V477.38ZM794.995 458.651H791.089V462.552H794.995V458.651ZM442.12 277.781H441.292V280.302H442.12V277.781ZM442.12 272.453H441.292V274.984H442.12V272.453ZM442.12 325.693H441.292V328.214H442.12V325.693ZM442.12 331.021H441.292V333.542H442.12V331.021ZM442.12 320.37H441.292V322.901H442.12V320.37ZM442.12 336.349H441.292V338.87H442.12V336.349ZM442.12 341.661H441.292V344.193H442.12V341.661ZM442.12 293.75H441.292V296.281H442.12V293.75ZM442.12 315.042H441.292V317.573H442.12V315.042ZM442.12 299.073H441.292V301.594H442.12V299.073ZM442.12 304.401H441.292V306.922H442.12V304.401ZM442.12 309.724H441.292V312.25H442.12V309.724ZM353.276 318H352.448V320.667H353.276V318ZM353.276 329.219H352.448V331.88H353.276V329.219ZM353.276 323.609H352.448V326.271H353.276V323.609ZM352.443 264.578H353.271V261.917H352.443V264.578ZM353.276 346.052H352.448V348.708H353.276V346.052ZM353.276 256.307H352.448V258.969H353.276V256.307ZM353.276 340.432H352.448V343.099H353.276V340.432ZM353.276 334.828H352.448V337.495H353.276V334.828ZM353.276 278.74H352.448V281.406H353.276V278.74ZM353.276 289.953H352.448V292.625H353.276V289.953ZM353.276 284.354H352.448V287.021H353.276V284.354ZM353.276 312.391H352.448V315.057H353.276V312.391ZM353.276 306.786H352.448V309.453H353.276V306.786ZM353.276 301.177H352.448V303.844H353.276V301.177ZM353.276 273.13H352.448V275.792H353.276V273.13ZM353.276 295.573H352.448V298.234H353.276V295.573ZM167.031 259.901H167.859V257.328H167.031V259.901ZM167.031 254.49H167.859V251.917H167.031V254.49ZM167.031 243.656H167.859V241.083H167.031V243.656ZM167.859 268.161H167.031V270.734H167.859V268.161ZM167.031 249.073H167.859V246.5H167.031V249.073ZM167.031 232.823H167.859V230.25H167.031V232.823ZM167.031 238.24H167.859V235.667H167.031V238.24ZM167.859 191.276H167.031V194.083H167.859V191.276ZM167.859 185.37H167.031V188.172H167.859V185.37ZM167.859 167.661H167.031V170.469H167.859V167.661ZM167.859 173.568H167.031V176.375H167.859V173.568ZM167.031 199.979H167.859V197.177H167.031V199.979ZM306.911 91.8542L306.464 91.1563L304.203 92.6042L304.651 93.3021L306.911 91.8542ZM311.667 88.7969L311.224 88.099L308.964 89.5469L309.417 90.2448L311.667 88.7969ZM321.193 82.6823L320.745 81.9844L318.484 83.4375L318.932 84.1354L321.193 82.6823ZM268.818 116.307L268.365 115.609L266.104 117.057L266.552 117.755L268.818 116.307ZM302.146 94.9063L301.698 94.2135L299.438 95.6615L299.885 96.3594L302.146 94.9063ZM278.339 110.193L277.896 109.5L275.635 110.948L276.089 111.646L278.339 110.193ZM283.099 107.13L282.651 106.438L280.391 107.885L280.844 108.583L283.099 107.13ZM325.953 79.625L325.505 78.9323L323.245 80.3802L323.693 81.0781L325.953 79.625ZM273.573 113.25L273.13 112.552L270.87 114.005L271.318 114.698L273.573 113.25ZM297.38 97.9635L296.932 97.2656L294.677 98.7188L295.12 99.4115L297.38 97.9635ZM287.865 104.083L287.411 103.385L285.151 104.833L285.599 105.531L287.865 104.083ZM292.62 101.021L292.177 100.323L289.917 101.771L290.365 102.469L292.62 101.021ZM316.432 85.7396L315.979 85.0417L313.724 86.4948L314.167 87.1875L316.432 85.7396ZM378.333 46L377.885 45.3021L375.625 46.75L376.073 47.4479L378.333 46ZM373.568 49.0521L373.115 48.3594L370.854 49.8073L371.302 50.5052L373.568 49.0521ZM330.714 76.5677L330.271 75.8698L328.01 77.3177L328.453 78.0156L330.714 76.5677ZM402.135 30.7188L401.688 30.0208L399.427 31.4688L399.875 32.1667L402.135 30.7188ZM364.042 55.1719L363.599 54.474L361.339 55.9271L361.792 56.6198L364.042 55.1719ZM397.375 33.776L396.927 33.0781L394.667 34.526L395.12 35.224L397.375 33.776ZM368.802 52.1146L368.359 51.4219L366.099 52.8698L366.542 53.5677L368.802 52.1146ZM340.24 70.4531L339.786 69.7552L337.526 71.2083L337.974 71.901L340.24 70.4531ZM344.995 67.3958L344.552 66.6979L342.292 68.151L342.74 68.849L344.995 67.3958ZM349.76 64.3385L349.318 63.6458L347.057 65.0938L347.5 65.7917L349.76 64.3385ZM354.521 61.2865L354.073 60.5885L351.813 62.0365L352.26 62.7344L354.521 61.2865ZM359.286 58.2292L358.839 57.5313L356.578 58.9844L357.026 59.6771L359.286 58.2292ZM335.474 73.5104L335.026 72.8125L332.771 74.2604L333.214 74.9583L335.474 73.5104ZM187.87 168.271L187.427 167.573L185.167 169.026L185.609 169.724L187.87 168.271ZM202.161 159.104L201.714 158.406L199.453 159.854L199.901 160.552L202.161 159.104ZM178.349 174.385L177.901 173.688L175.641 175.135L176.089 175.833L178.349 174.385ZM197.396 162.151L196.948 161.458L194.688 162.906L195.135 163.604L197.396 162.151ZM173.589 177.438L173.146 176.745L170.885 178.193L171.339 178.891L173.589 177.438ZM264.052 119.365L263.604 118.667L261.344 120.115L261.792 120.813L264.052 119.365ZM183.115 171.328L182.667 170.63L180.406 172.083L180.854 172.776L183.115 171.328ZM382.646 42.2448L380.385 43.6979L380.828 44.3906L383.089 42.9427L382.646 42.2448ZM387.401 39.1875L385.146 40.6406L385.589 41.3333L387.849 39.8854L387.401 39.1875ZM159.302 186.609L158.854 185.911L156.594 187.359L157.042 188.057L159.302 186.609ZM164.068 183.552L163.62 182.854L161.359 184.307L161.807 185L164.068 183.552ZM167.031 181.651V182.271H167.859V181.12L168.823 180.495L168.38 179.802L167.859 180.13V179.469H167.031V180.667L166.115 181.25L166.557 181.948L167.031 181.651ZM192.635 165.208L192.182 164.51L189.922 165.964L190.37 166.661L192.635 165.208ZM245.01 131.589L244.568 130.891L242.307 132.339L242.75 133.036L245.01 131.589ZM249.771 128.536L249.323 127.839L247.063 129.292L247.51 129.984L249.771 128.536ZM206.917 156.042L206.469 155.344L204.208 156.797L204.651 157.49L206.917 156.042ZM235.49 137.698L235.042 137L232.781 138.453L233.234 139.146L235.49 137.698ZM254.531 125.474L254.083 124.776L251.823 126.229L252.271 126.922L254.531 125.474ZM259.292 122.417L258.849 121.724L256.589 123.172L257.031 123.87L259.292 122.417ZM240.245 134.651L239.802 133.953L237.542 135.401L237.984 136.099L240.245 134.651ZM216.443 149.927L215.995 149.234L213.734 150.682L214.188 151.38L216.443 149.927ZM211.682 152.984L211.24 152.286L208.979 153.74L209.422 154.432L211.682 152.984ZM225.964 143.818L225.521 143.12L223.26 144.568L223.703 145.266L225.964 143.818ZM230.724 140.76L230.276 140.063L228.016 141.516L228.469 142.208L230.724 140.76ZM221.198 146.875L220.755 146.177L218.495 147.625L218.948 148.323L221.198 146.875Z" fill="black"/>
</g>
</g>
<defs>
<clipPath id="clip0_1880_33507">
<rect width="919" height="496" fill="white"/>
</clipPath>
</defs>
</svg>
