<svg width="335" height="236" viewBox="0 0 335 236" fill="none" xmlns="http://www.w3.org/2000/svg">
<path d="M17.7306 143.297L13.1875 147.659L60.7995 195.452L199.274 57.3413L241.798 99.6832L246.704 94.7767L199.274 47.8916L60.7995 185.821L17.7306 143.297Z" fill="#6D8F0A"/>
<path d="M152.022 134.409L147.297 139.134L202.541 194.56L269.598 127.503L310.486 167.483L334.474 143.313L329.931 139.134L310.486 158.397L270.143 118.235L203.086 185.292L152.022 134.409Z" fill="#6D8F0A"/>
<rect x="108.469" y="62.1113" width="21.8626" height="7.19695" transform="rotate(45 108.469 62.1113)" fill="#6D8F0A"/>
<rect x="111.309" y="152.743" width="34.5278" height="33.8009" rx="16.9004" fill="#6D8F0A"/>
<path d="M24.2608 102.766L1 126.935L60.7875 186.178L199.262 48.4302L246.692 95.3153L203.26 139.293L170.731 107.309L147.289 130.57L203.26 186.36L270.317 119.121L310.659 159.464L334.284 135.84L199.262 1L132.024 68.2383L112.943 49.7023L104.22 58.0617L122.938 76.9611L60.9693 139.111L24.2608 102.766Z" fill="#212830" stroke="#6D8F0A"/>
<rect x="112.539" y="148.509" width="32.074" height="32.8009" rx="16.037" fill="#212830" stroke="#6D8F0A"/>
<rect x="271.184" y="156.202" width="36.5956" height="76.2556" transform="rotate(45 271.184 156.202)" fill="#6D8F0A"/>
<rect x="271.797" y="151.622" width="32.6176" height="72.6721" transform="rotate(45 271.797 151.622)" fill="#212830" stroke="#6D8F0A"/>
</svg>
