<svg width="77" height="54" viewBox="0 0 77 54" fill="none" xmlns="http://www.w3.org/2000/svg">
<path d="M3.84475 32.6987L2.80078 33.7009L13.7416 44.6835L45.5617 12.9468L55.3332 22.6766L56.4607 21.5491L45.5617 10.7754L13.7416 42.4702L3.84475 32.6987Z" fill="#6D8F0A"/>
<path d="M34.7029 30.656L33.6172 31.7417L46.3118 44.4781L61.7208 29.0691L71.1165 38.2561L76.6287 32.7022L75.5847 31.7417L71.1165 36.1681L61.8461 26.9395L46.4371 42.3484L34.7029 30.656Z" fill="#6D8F0A"/>
<rect x="24.6953" y="14.043" width="5.02383" height="1.65379" transform="rotate(45 24.6953 14.043)" fill="#6D8F0A"/>
<rect x="25.3477" y="34.8691" width="7.93415" height="7.76712" rx="3.88356" fill="#6D8F0A"/>
<path d="M5.34511 23.3849L0 28.9388L13.7386 42.5521L45.5587 10.899L56.4578 21.6728L46.4774 31.7784L39.0026 24.4288L33.6158 29.774L46.4774 42.5939L61.8864 27.1432L71.1568 36.4136L76.5855 30.985L45.5587 0L30.108 15.4507L25.7234 11.1913L23.7189 13.1122L28.0201 17.4551L13.7804 31.7366L5.34511 23.3849Z" fill="#212830"/>
<rect x="25.5156" y="33.7812" width="7.60008" height="7.76712" rx="3.80004" fill="#212830"/>
<rect x="62.0859" y="35.6641" width="8.40933" height="17.5228" transform="rotate(45 62.0859 35.6641)" fill="#6D8F0A"/>
<rect x="62.2266" y="34.4492" width="7.725" height="16.9292" transform="rotate(45 62.2266 34.4492)" fill="#212830"/>
</svg>
