<svg width="73" height="51" viewBox="0 0 73 51" fill="none" xmlns="http://www.w3.org/2000/svg">
<path d="M3.63048 30.8808L2.64453 31.8273L12.9773 42.1996L43.0292 12.2266L52.2577 21.4157L53.3226 20.3508L43.0292 10.1758L12.9773 40.1093L3.63048 30.8808Z" fill="#6D8F0A"/>
<path d="M32.7754 28.9534L31.75 29.9787L43.7392 42.0074L58.2919 27.4547L67.1655 36.1311L72.3713 30.8858L71.3853 29.9787L67.1655 34.1592L58.4102 25.4434L43.8575 39.996L32.7754 28.9534Z" fill="#6D8F0A"/>
<rect x="23.3203" y="13.2617" width="4.74465" height="1.56189" transform="rotate(45 23.3203 13.2617)" fill="#6D8F0A"/>
<rect x="23.9375" y="32.9316" width="7.49325" height="7.33549" rx="3.66775" fill="#6D8F0A"/>
<path d="M5.04808 22.0854L0 27.3306L12.9751 40.1875L43.027 10.2934L53.3204 20.4684L43.8947 30.0124L36.8352 23.0713L31.7477 28.1194L43.8947 40.2269L58.4473 25.6348L67.2026 34.3901L72.3296 29.2631L43.027 0L28.4349 14.5921L24.2939 10.5694L22.4009 12.3836L26.463 16.4851L13.0146 29.973L5.04808 22.0854Z" fill="#212830"/>
<rect x="24.0977" y="31.9043" width="7.17774" height="7.33549" rx="3.58887" fill="#212830"/>
<rect x="58.6367" y="33.6816" width="7.94202" height="16.5491" transform="rotate(45 58.6367 33.6816)" fill="#6D8F0A"/>
<rect x="58.7695" y="32.5352" width="7.29571" height="15.9884" transform="rotate(45 58.7695 32.5352)" fill="#212830"/>
</svg>
