<svg width="1096" height="730" viewBox="0 0 1096 730" fill="none" xmlns="http://www.w3.org/2000/svg">
<mask id="mask0_1574_28677" style="mask-type:luminance" maskUnits="userSpaceOnUse" x="0" y="145" width="887" height="421">
<path d="M0.5 145.334H886.667V565.334H0.5V145.334Z" fill="white"/>
</mask>
<g mask="url(#mask0_1574_28677)">
<path d="M749.915 396.271V386.625H749.374V396.359L741.988 397.573L742.077 398.109L757.551 395.562L757.462 395.031L749.915 396.271ZM186.415 330.396H185.952V366.089H186.415V330.396ZM202.467 322.151H202.004V359.12H202.467V322.151ZM194.212 326.385H193.754V362.698H194.212V326.385ZM176.79 335.333H176.327V370.266H176.79V335.333ZM198.28 324.297H197.816V360.938H198.28V324.297ZM271.02 416.885V421.146L271.264 421.182L274.447 421.667L274.78 421.714V417.474L274.535 417.432L271.353 416.943L271.02 416.885ZM271.598 417.562L274.207 417.964V421.042L271.598 420.651V417.562ZM264.665 420.182L264.993 420.234V415.953L264.754 415.911L261.509 415.411L261.176 415.354V419.651L261.421 419.688L264.665 420.182ZM261.749 416.036L264.415 416.443L264.421 419.557L261.749 419.156V416.036ZM251.113 413.802V418.135L251.358 418.172L254.671 418.677L254.999 418.724V418.385L254.993 414.651V414.406L254.754 414.365L251.447 413.849L251.113 413.802ZM251.686 414.479L254.421 414.896V418.047L251.686 417.635V414.479ZM240.837 412.208V416.583L241.082 416.62L244.462 417.13L244.796 417.182V412.823L244.556 412.786L241.176 412.26L240.837 412.208ZM241.415 412.88L244.217 413.318V416.505L241.415 416.078V412.88ZM230.353 410.583V414.995L230.603 415.036L234.046 415.552L234.379 415.604V411.214L234.134 411.172L230.681 410.63L230.353 410.583ZM230.931 411.255L233.801 411.698V414.932L230.931 414.5V411.255ZM288.478 412.422V409.75H287.905V412.422H288.478ZM282.223 411.401V408.708H281.65V411.401H282.223ZM262.905 405.5H262.327V408.245H262.905V405.5ZM256.275 404.396H255.702V407.161H256.275V404.396ZM269.436 409.312V406.583H268.858V409.312H269.436ZM215.285 451.177L182.207 458.875L182.311 459.328L213.306 452.109V495.818H213.764V452L215.384 451.625L215.285 451.177ZM258.181 516.391V555.724H258.645V516.391H258.181ZM252.65 552.193V519.948L252.374 519.932L238.264 519.292L237.962 519.281V552.01L238.249 552.016L252.358 552.193H252.65ZM250.306 551.594L238.54 551.448V535.948L250.306 536.292V551.594ZM250.306 535.714L238.54 535.365V519.88L250.306 520.417V535.714ZM252.066 551.615L250.889 551.599V536.302L252.066 536.339V551.615ZM252.066 535.76L250.889 535.729V520.448L252.066 520.5V535.76ZM235.124 551.974V519.151L234.848 519.141L220.217 518.474L219.915 518.464V551.786H220.202L234.832 551.974H235.124ZM232.723 551.37L220.493 551.219V535.432L232.723 535.786V551.37ZM232.723 535.203L220.493 534.849V519.068L232.723 519.63V535.203ZM234.546 551.391L233.301 551.375V535.802L234.546 535.833V551.391ZM234.546 535.255L233.301 535.219V519.651L234.546 519.703V535.255ZM199.337 552.234L215.061 551.828L215.342 551.818V518.583L215.03 518.62L199.29 520.089L199.035 520.109V520.375L199.04 551.953V552.25L199.337 552.234ZM214.77 551.26L201.546 551.609V536.318L214.775 535.526V551.26H214.77ZM214.77 519.219V534.948L201.54 535.74L201.535 520.464L214.77 519.219ZM199.618 551.651L199.613 536.432L200.967 536.349V551.62L199.618 551.651ZM200.962 520.51L200.967 535.771L199.613 535.854V520.641L200.962 520.51ZM195.697 520.417L181.181 521.776L180.915 521.802V552.714L181.212 552.708L195.738 552.333L196.02 552.328V552.042L196.014 520.708V520.391L195.697 520.417ZM183.275 522.161L195.436 521.026V536.104L183.275 536.833V522.161ZM182.691 552.094L181.493 552.13V537.516L182.691 537.443V552.094ZM182.691 536.859L181.493 536.938V522.323L182.691 522.208V536.859ZM183.275 552.078V537.406L195.436 536.677V551.755L183.275 552.078ZM164.15 523.37V553.156L164.452 553.151L177.9 552.802L178.181 552.792V522.062L177.868 522.094L164.415 523.354L164.15 523.37ZM166.389 523.734L177.598 522.693V537.172L166.389 537.839V523.734ZM166.389 538.417L177.598 537.74V552.224L166.389 552.516V538.417ZM164.733 523.891L165.806 523.781V537.875L164.733 537.938V523.891ZM164.733 538.516L165.806 538.448V552.531L164.733 552.557V538.516ZM148.598 524.823V553.552L148.895 553.547L161.379 553.224L161.66 553.208V523.599L161.348 523.63L148.863 524.797L148.598 524.823ZM150.712 525.203L161.082 524.234V538.161L150.712 538.781V525.203ZM150.707 539.354L161.077 538.729V552.656L150.702 552.932L150.707 539.354ZM149.176 525.349L150.139 525.255V538.807L149.181 538.87V525.349H149.176ZM149.176 539.448L150.134 539.385L150.129 552.943L149.176 552.969V539.448ZM285.426 555.266V511.073H284.962V555.266H285.426ZM282.4 555.333V510.932H281.936V555.333H282.4ZM356.03 436.099H356.499V428.411H356.03V436.099ZM350.499 437.281V427.516H350.04V437.281H350.499ZM330.775 281.021V344.734H331.358V281.021H330.775ZM122.811 491.406V498.365L115.931 499.505L116.025 500.078L122.811 498.953V508.547H123.389V498.854L134.316 497.042V506.833H134.858V496.953L146.415 495.031V505.224H146.957V494.948L159.473 492.865V503.391H160.014V492.776L172.988 490.62V501.49H173.53V490.531L192.842 487.328L192.749 486.76L173.53 489.948V412.406L178.447 413.125L178.514 412.667L173.53 411.943V388.974L173.717 389.005L173.79 389.016L173.868 388.99L176.738 387.854L177.697 387.474L176.676 387.302L173.186 386.719L173.108 386.703L173.03 386.734L170.176 387.875L169.223 388.255L170.238 388.427L172.988 388.885V411.865L160.014 409.974V394.38L160.108 394.396L160.186 394.417L160.259 394.38L162.941 393.323L163.915 392.938L162.874 392.776L159.447 392.214L159.368 392.198L159.29 392.234L156.618 393.297L155.655 393.688L156.686 393.849L159.467 394.292V409.896L146.952 408.073V399.417L147.301 399.469L147.379 399.49L147.447 399.453L149.978 398.453L150.967 398.062L149.915 397.901L146.556 397.375L146.473 397.365L146.4 397.391L143.874 398.406L142.895 398.797L143.936 398.958L146.41 399.333V407.995L134.853 406.312V404.182L135.233 404.245L135.311 404.255L135.384 404.229L137.77 403.281L138.77 402.885L137.702 402.729L134.4 402.24L134.322 402.224L134.254 402.255L131.889 403.203L130.895 403.604L131.947 403.76L134.311 404.104V406.234L122.264 404.484L213.983 367.005L247.915 373.672L248.004 373.219L214.009 366.542L213.941 366.531L213.874 366.552L121.306 404.375L120.52 404.698L121.358 404.818L134.306 406.703V496.453L123.379 498.266V491.406H122.811ZM173.514 387.349L175.551 387.698L173.717 388.422L173.509 388.385V387.349H173.514ZM171.342 388.021L172.978 387.37V388.297L171.342 388.021ZM160.009 392.88L161.749 393.161L160.113 393.807L160.009 393.792V392.88ZM160.009 410.438L172.983 412.328V490.036L160.009 492.188V410.438ZM157.801 393.443L159.431 392.792L159.462 392.797V393.708L157.801 393.443ZM146.952 398.016L148.78 398.297L147.306 398.88L146.952 398.823V398.016ZM146.952 408.536L159.467 410.354V492.271L146.952 494.349V408.536ZM145.072 398.542L146.415 398V398.745L145.072 398.542ZM134.858 402.891L136.561 403.141L135.249 403.667L134.863 403.604V402.891H134.858ZM134.858 406.781L146.415 408.458V494.448L134.858 496.365V406.781ZM133.092 403.344L134.316 402.854V403.526L133.092 403.344ZM271.311 406.682L271.473 407.24L326.921 391.167L326.759 390.609L271.311 406.682ZM561.785 562.156H562.244V500.688H561.785V562.156ZM574.535 562.193H574.999V501.88H574.535V562.193ZM586.941 562.234H587.405V503.062H586.941V562.234ZM307.457 503.755V500.479H306.993V503.755H307.457ZM327.577 501.646V496.167H327.118V501.646H327.577ZM319.546 502.495V499.016H318.973V502.495H319.546ZM315.691 502.839H316.27V499.38H315.691V502.839ZM326.098 501.802V498.292H325.52V501.802H326.098ZM322.243 502.151H322.827V498.656H322.243V502.151ZM656.41 401.969L656.415 403.464L647.759 400.99L647.681 401.245L647.634 400.984L607.764 408.068V407.068H607.301V408.146L605.733 408.427L605.832 408.964L607.306 408.703V440.651H607.77V408.615L647.681 401.526L656.613 404.083L656.962 404.182V403.823L656.957 401.969H656.41ZM665.113 358.849L664.926 359.359L690.285 368.755V447.589H690.827V368.38L690.65 368.312L665.113 358.849ZM882.014 459.203V454.427H881.551V459.068L862.697 453.193V448.12H862.233V453.047L858.79 451.979L858.655 452.417L885.316 460.724L885.452 460.281L882.014 459.203ZM489.65 449.781L489.717 449.328L488.749 449.182V448.589H488.29V449.109L478.186 447.526V441.938L493.973 444.552L494.046 444.099L427.379 433.068L427.342 433.057L427.301 433.068L369.145 443.99L369.233 444.443L387.52 441.005V447.286L374.764 449.552V449.021H374.301V449.63L373.327 449.802L373.405 450.255L374.301 450.099V455.182L373.316 455.349L373.421 455.979L374.301 455.828V461.901L373.316 462.057L373.415 462.688L374.301 462.547V468.62L373.322 468.76L373.415 469.396L374.301 469.271V475.339L373.327 475.469L373.41 476.104L374.301 475.984V477.859H374.764V475.922L387.52 474.167V475.974H387.983V474.104L429.415 468.411L477.723 474.354V476.5H478.186V474.417L488.29 475.656V477.807H488.749V475.719L489.624 475.828L489.702 475.188L488.749 475.062V468.964L489.618 469.078L489.702 468.443L488.749 468.323V462.219L489.618 462.344L489.707 461.708L488.749 461.573V455.474L489.613 455.604L489.707 454.974L488.749 454.828V449.646L489.65 449.781ZM387.514 473.521L374.759 475.271V469.203L387.514 467.318V473.521ZM387.514 466.667L374.759 468.552V462.479L387.514 460.458V466.667ZM387.514 459.812L374.759 461.833V455.755L387.514 453.599V459.812ZM387.514 452.953L374.759 455.115V450.021L387.514 447.755V452.953ZM477.717 473.708L429.447 467.771L429.405 468.083L429.363 467.771L387.973 473.458V467.25L429.405 461.115L477.712 467.505V473.708H477.717ZM477.717 466.854L429.452 460.474L429.41 460.792L429.368 460.474L387.983 466.599V460.385L429.415 453.823L477.723 460.656V466.854H477.717ZM477.717 460.01L429.452 453.182L429.405 453.5L429.358 453.188L387.978 459.745V453.531L429.395 446.536L477.717 453.807V460.01ZM477.717 453.161L429.457 445.896L429.41 446.214L429.358 445.896L387.978 452.885V447.677L429.41 440.318L477.717 447.917V453.161ZM477.717 447.443L429.447 439.849L429.41 440.078L429.374 439.849L387.983 447.203V440.917L427.342 433.516L477.723 441.854V447.443H477.717ZM488.285 475.01L478.181 473.766V467.568L488.285 468.901V475.01ZM488.285 468.255L478.181 466.917V460.724L488.285 462.156V468.255ZM488.285 461.505L478.181 460.073V453.87L488.285 455.391V461.505ZM488.285 454.75L478.181 453.229V447.99L488.285 449.573V454.75ZM329.561 483.927V457.844H328.988V483.927H329.561ZM323.098 457.062H322.514V484.797H323.098V457.062ZM332.061 483.578V458.099H331.598V483.578H332.061ZM309.665 455.635L352.176 447.646V453.562L334.77 456.656V456.214H334.306V456.74L333.452 456.891L333.53 457.349L334.306 457.214V461.943L333.426 462.089L333.53 462.719L334.306 462.589V468.24L333.431 468.375L333.53 469.005L334.306 468.885V474.536L333.431 474.661L333.525 475.292L334.306 475.177V480.828L333.436 480.948L333.525 481.578L334.311 481.464V483.198H334.775V481.401L352.186 479.005V480.766H352.65V478.943L356.181 478.453L356.092 477.818L352.65 478.292V472.448L356.181 471.922L356.087 471.292L352.645 471.802V465.958L356.181 465.391L356.077 464.76L352.634 465.307V459.464L356.181 458.865L356.072 458.24L352.634 458.818V453.917L356.165 453.292L356.082 452.839L352.629 453.453V447.531L356.165 446.865L356.087 446.443L309.582 455.182L309.665 455.635ZM352.176 478.38L334.77 480.781V475.115L352.176 472.542V478.38ZM352.176 471.896L334.77 474.469V468.818L352.176 466.062V471.896ZM352.176 465.411L334.77 468.167V462.51L352.176 459.568V465.411ZM352.176 458.922L334.77 461.859V457.125L352.176 454.031V458.922ZM607.301 551.531H607.764V455.25H607.301V551.531ZM552.54 385.203V370.661H552.077V385.203H552.54ZM349.113 286.854V338.052H349.577V286.854H349.113ZM333.108 281.74V343.927H333.572V281.74H333.108ZM326.785 392.719L275.488 407.453L275.54 407.646H275.296V410.354H275.868V407.818L326.905 393.161L326.785 392.719ZM335.285 423.688L336.452 423.875L352.176 426.38V436.776H352.645V426.458L358.165 427.333L358.233 426.875L352.634 425.984V424.974L358.16 425.865L358.228 425.406L352.629 424.505V421.974L363.02 423.688L363.087 423.229L352.629 421.505V420.135L355.9 419.38L370.983 421.917L371.061 421.453L357.077 419.104L364.061 417.479L379.217 420.083L379.296 419.63L365.233 417.214L372.504 415.526L387.499 418.167V429.589H387.962V414.714L396.504 416.25L396.582 415.797L387.962 414.245V411.943L390.27 411.406L405.598 414.234L405.681 413.781L391.395 411.141L399.639 409.229L415.02 412.141L415.108 411.688L400.754 408.969L409.379 406.969L477.712 420.266V430.656H478.176V420.354L515.613 427.646V437.5H516.077V427.734L528.113 430.073L524.483 430.682L519.462 429.714L519.374 430.167L523.176 430.896L519.629 431.49L519.462 431.458L519.447 431.521V431.526L519.379 431.911L519.514 431.938L519.52 431.979L539.566 428.62L540.806 428.411L539.572 428.161L419.535 404.151L419.483 404.141L419.431 404.156L336.426 423.411L335.285 423.688ZM516.082 423.948L538.254 428.385L529.415 429.865L516.077 427.266V423.948H516.082ZM478.181 416.359L515.619 423.849V427.172L478.181 419.885V416.359ZM419.499 404.62L477.717 416.26V419.797L410.488 406.708L419.499 404.62ZM387.514 412.042V414.156L382.384 413.234L387.514 412.042ZM381.238 413.5L387.52 414.63V417.693L373.676 415.26L381.238 413.5ZM352.176 420.245V421.432L349.191 420.938L352.176 420.245ZM348.009 421.214L352.176 421.896V424.427L341.525 422.708L348.009 421.214ZM340.332 422.995L352.176 424.901V425.917L337.697 423.609L340.332 422.995ZM289.983 239.208H289.52V284.833H289.983V239.208ZM607.051 380.604L609.191 380.156L609.092 379.703L607.051 380.125V287.62L606.915 287.557L368.337 179.703L368.223 179.656L368.118 179.714L277.087 234.599L276.973 234.661V291.104H277.436V234.922L368.254 180.172L606.582 287.917V380.224L566.202 388.698L566.296 389.151L606.587 380.703V384.448H606.822L606.754 384.667L662.712 401.115L662.837 400.677L607.046 384.276V380.604H607.051ZM474.025 253.057V275.25L472.988 274.849L472.738 275.495L474.03 276V287.625L473.02 287.245L472.738 288.01L474.025 288.484V296.01L473.009 295.646L472.78 296.297L474.025 296.745V316.021L473.004 315.682L472.822 316.229L474.025 316.625V328.193H474.483V316.781L502.947 326.255V337.464H503.639V326.49L530.603 335.464V346.026H531.301V335.698L534.228 336.672V347.401H535.04V336.943L557.473 344.411V354.667H558.046V344L557.848 343.938L535.04 336.339V310.255L534.775 310.156L531.306 308.87V297.458L531.077 297.37L474.488 275.432V253.057H474.025ZM531.306 309.734L534.238 310.823V336.073L531.306 335.094V309.734ZM502.952 325.651L474.488 316.177V296.911L502.952 307.151V325.651ZM503.301 306.542L474.488 296.177V288.656L513.525 303.135L503.301 306.542ZM530.608 334.865L503.645 325.885V307.156L514.561 303.521L530.613 309.474V334.865H530.608ZM530.608 308.609L515.78 303.109L530.608 298.172V308.609ZM529.931 297.672L514.744 302.729L474.483 287.786V276.172L529.931 297.672ZM356.806 405.854V356.411H356.264V405.854H356.806ZM355.103 406.344V356.948H354.639V406.344H355.103ZM338.395 353.755V410.495H338.858V354.089L406.327 330.75L406.176 330.312L338.556 353.703L338.395 353.755ZM431.686 330.146L537.473 361.651V415.932H537.936V361.302L537.77 361.25L431.816 329.698L431.686 330.146ZM427.171 559.432L404.145 559.578L403.858 559.583V564.094H404.431V560.151L427.171 560.005L474.707 560.271V564.047H475.285V559.703H474.999L427.171 559.432ZM231.462 403.464L242.165 400.021V404.958H242.738V399.839L248.967 397.833V406.068H249.54V397.651L251.905 396.891L251.707 396.281L231.259 402.859L231.462 403.464ZM192.374 381.651L191.368 381.474L187.816 380.844L187.738 380.833L187.665 380.859L184.613 382.083L183.676 382.458L184.676 382.635L188.217 383.255L188.301 383.271L188.374 383.24L191.431 382.026L192.374 381.651ZM188.233 382.672L185.77 382.245L187.796 381.432L190.264 381.875L188.233 382.672ZM267.186 387.776L277.796 384.276V385.99L274.316 387.12L274.462 387.562L277.796 386.479V387.26H278.259V386.328L281.54 385.26V386.052H281.999V385.109L285.384 384.01V384.807H285.848V383.859L289.337 382.729V383.536H289.801V382.568L293.405 381.391V382.203H293.863V381.245L297.592 380.031V380.849H298.051V379.88L302.223 378.521L302.087 378.083L298.056 379.391V377.594L302.28 376.203L302.072 375.594L298.056 376.917V341.229L302.223 339.589L302.014 339.047L298.056 340.604V303.297L302.275 301.354L302.03 300.828L298.056 302.661V301.745H297.598V302.875L293.868 304.589V303.682H293.41V304.807L289.806 306.464V305.568H289.342V306.677L285.853 308.286V307.396H285.389V308.495L282.004 310.057V309.177H281.546V310.266L278.264 311.776V310.906H277.801V311.99L274.228 313.635L274.467 314.161L277.801 312.625V348.573L274.264 349.964L274.478 350.505L277.801 349.198V383.583L266.77 387.219L266.546 387.297V390.786H267.191V387.776H267.186ZM293.868 305.24L297.598 303.521V340.792L293.868 342.26V305.24ZM293.868 342.88L297.598 341.417V377.078L293.868 378.302V342.88ZM293.868 378.984L297.598 377.75V379.547L293.868 380.755V378.984ZM289.806 307.109L293.41 305.453V342.443L289.806 343.865V307.109ZM289.806 344.484L293.41 343.068V378.458L289.806 379.646V344.484ZM289.806 380.318L293.41 379.13V380.906L289.806 382.083V380.318ZM285.853 308.927L289.342 307.323V344.042L285.853 345.411V308.927ZM285.853 346.036L289.342 344.661V379.792L285.853 380.938V346.036ZM285.853 381.62L289.342 380.469V382.229L285.853 383.365V381.62ZM282.004 310.698L285.389 309.141V345.599L282.004 346.932V310.698ZM282.004 347.552L285.389 346.219V381.094L282.004 382.208V347.552ZM282.004 382.891L285.389 381.781V383.521L282.004 384.62V382.891ZM278.259 312.422L281.54 310.911V347.115L278.259 348.406V312.422ZM278.259 349.026L281.54 347.74V382.37L278.259 383.448V349.026ZM278.259 384.12L281.54 383.036V384.766L278.259 385.828V384.12ZM368.54 558.318L380.806 558.198H381.129V494.953L380.775 494.99L368.504 496.286L368.217 496.318V558.323L368.54 558.318ZM370.296 496.745L380.488 495.667V526.286L370.296 526.87V496.745ZM370.296 527.521L380.488 526.938V557.562L370.296 557.667V527.521ZM368.858 496.896L369.832 496.792V526.901L368.858 526.953V496.896ZM368.858 527.599L369.832 527.542V557.656L368.858 557.672V527.599ZM353.665 497.859V558.458L353.988 558.453L365.702 558.339H366.02V496.547L365.665 496.589L353.957 497.833L353.665 497.859ZM355.671 498.297L365.374 497.266V527.161L355.671 527.724V498.297ZM355.671 528.365L365.374 527.807V557.703L355.671 557.802V528.365ZM354.311 498.438L355.212 498.339V527.745L354.311 527.797V498.438ZM354.311 528.448L355.212 528.391V557.802L354.311 557.812V528.448ZM339.754 499.333V558.599L340.082 558.594L351.27 558.484H351.587V498.078L351.233 498.115L340.046 499.302L339.754 499.333ZM341.697 499.771L350.941 498.792V527.99L341.697 528.526V499.771ZM341.697 529.172L350.941 528.635V557.839L341.697 557.938V529.172ZM340.4 499.917L341.238 499.828V528.552L340.4 528.599V499.917ZM340.4 529.25L341.238 529.198V557.943L340.4 557.948V529.25ZM389.004 494.766L388.936 494.125L387.978 494.229V490.531H387.514V494.276L383.759 494.677L383.467 494.708V558.177L383.796 558.172L387.514 558.141V561.63L327.577 561.823V558.167H327.118V561.828H326.098V558.182H325.52V561.833L322.827 561.844V558.219H322.243V561.844L319.546 561.854V558.25H318.973V561.854L316.27 561.865V558.281H315.691V561.865L311.467 561.88V558.323H311.004V561.88L307.457 561.896V558.365H306.993V561.896L295.129 561.938V562.63L306.993 562.594V563.578H307.457V562.589L388.967 562.318V561.625L387.978 561.63V558.135L388.967 558.125L388.962 557.484L387.978 557.495V526.5L388.988 526.443L388.952 525.802L387.978 525.859V494.88L389.004 494.766ZM385.16 557.516L384.124 557.526V526.724L385.16 526.656V557.516ZM385.16 526.016L384.124 526.078V495.286L385.16 495.172V526.016ZM387.514 557.495L385.618 557.51V526.63L387.514 526.521V557.495ZM387.514 525.885L385.618 525.995V495.13L387.514 494.927V525.885ZM511.098 499.615L510.754 499.583V558.12H511.072L524.327 558.234L524.65 558.24V500.844L524.358 500.823L511.098 499.615ZM522.436 557.578L511.389 557.474V529.193L522.436 529.745V557.578ZM522.436 529.104L511.389 528.552V500.286L522.436 501.292V529.104ZM523.999 557.594L522.9 557.583V529.766L523.999 529.823V557.594ZM523.999 529.177L522.9 529.12V501.328L523.999 501.427V529.177ZM550.092 503.797L550.155 503.161L548.941 503.052V499.344H548.483V503.01L547.587 502.927V501.104H547.124V502.88L543.025 502.51L542.681 502.479V558.401H542.999L547.129 558.438V560.266H547.592V558.443L548.488 558.448V562.125H548.947V558.453L550.129 558.464L550.134 557.828L548.947 557.818V531.068L550.119 531.125L550.15 530.484L548.936 530.427V503.693L550.092 503.797ZM547.119 557.802L543.311 557.766V530.781L547.119 530.974V557.802ZM547.119 530.333L543.311 530.141V503.177L547.119 503.526V530.333ZM548.478 557.812L547.582 557.802V531L548.478 531.042V557.812ZM548.478 530.401L547.582 530.354V503.573L548.478 503.656V530.401ZM540.363 502.562V502.266L540.072 502.24L527.421 501.089L527.072 501.062V558.26L527.395 558.266L540.051 558.38H540.374V558.057L540.363 502.562ZM527.723 501.766L538.244 502.719V529.891L527.712 529.365V501.766H527.723ZM527.723 557.625V530.01L538.249 530.536V557.724L527.723 557.625ZM539.723 502.859L539.728 529.964L538.707 529.911V502.766L539.723 502.859ZM538.712 557.719V530.557L539.733 530.609V557.729L538.712 557.719ZM493.983 498.062L493.634 498.031V498.38L493.629 557.641V557.964L493.947 557.969L507.837 558.089H508.16V557.771L508.165 499.635V499.344L507.874 499.318L493.983 498.062ZM505.884 557.432L494.264 557.328L494.27 528.339L505.884 528.917V557.432ZM505.884 528.276L494.27 527.693V498.734L505.884 499.781V528.276ZM507.514 557.448L506.348 557.438V528.943L507.514 529.005V557.448ZM507.52 528.359L506.353 528.297V499.828L507.525 499.938L507.52 528.359ZM843.316 441.792H842.775V446.948L807.947 436.104V430.255H807.41V435.932L803.374 434.672L803.212 435.193L846.353 448.625L846.514 448.109L843.316 447.109V441.792ZM862.54 458.651L862.197 458.547V517.604L862.431 517.641L881.749 520.182L882.051 520.219V464.427L881.858 464.365L862.54 458.651ZM881.509 519.604L862.738 517.141V459.271L881.509 464.823V519.604ZM862.499 522.641L862.197 522.599V554.62L862.462 554.625L881.775 555.161L882.051 555.167V524.906L881.811 524.875L862.499 522.641ZM881.509 554.609L862.738 554.094V523.208L881.509 525.385V554.609ZM807.78 442.391L807.363 442.276V510.458L807.645 510.495L843.014 515.141L843.369 515.193V452.927L843.139 452.854L807.78 442.391ZM842.733 514.458L808.009 509.891V443.13L842.733 453.401V514.458ZM807.723 516.234L807.363 516.198V553.161L807.681 553.167L843.046 554.146L843.379 554.151V520.37L843.087 520.333L807.723 516.234ZM842.733 553.495L808.009 552.536V516.917L842.733 520.943V553.495ZM427.868 470.667V472.12H428.514V470.667H427.868ZM381.759 313.453V324.021H382.332V313.849L391.837 310.193V320.302H392.415V310.167L407.598 314.839L407.764 314.286L392.212 309.495L392.118 309.469L392.025 309.505L381.941 313.38L381.759 313.453ZM557.478 386.641H558.051V372.219H557.478V386.641ZM372.874 145.609H372.228V166.193H372.874V145.609ZM291.65 198.698H291.004V212.057H291.65V198.698ZM473.197 195.26H472.556V213.401H473.197V195.26ZM554.004 459.49L551.244 459.062V456.818H550.785V458.99L542.004 457.609L541.9 458.292L550.785 459.693V464.026L539.785 462.385L539.77 462.505L538.806 462.359V457.521L539.691 457.656L539.764 457.198L538.811 457.047V456.505H538.348V456.979L516.092 453.474V448.208L561.087 455.651L561.165 455.198L507.306 446.286L507.228 446.745L515.629 448.13V453.406L507.301 452.099L507.228 452.552L515.629 453.87V458.865L507.316 457.615L507.217 458.25L515.629 459.516V465.365L507.311 464.188L507.223 464.823L515.629 466.01V471.875L507.306 470.776L507.223 471.406L515.624 472.516V478.375L507.301 477.349L507.223 477.984L515.624 479.021V481H516.087V479.073L538.342 481.812V484.984H538.806V481.875L539.697 481.984L539.775 481.349L538.806 481.234V475.589L539.697 475.703L539.78 475.073L538.806 474.948V469.302L539.691 469.427L539.78 468.792L538.806 468.651V463.01L539.691 463.146L539.702 463.073L550.785 464.729V476.599H551.244V464.797L554.004 465.203V476.672H554.697V464.609L554.4 464.557L551.244 464.089V459.755L554.296 460.24L554.697 460.302V456.339H554.004V459.49ZM538.337 481.172L516.082 478.432V472.573L538.337 475.521V481.172ZM538.337 474.88L516.082 471.932V466.078L538.337 469.229V474.88ZM538.337 468.578L516.082 465.438V459.589L538.337 462.932V468.578ZM538.337 462.286L516.082 458.938V453.943L538.337 457.453V462.286ZM579.431 437.448L579.02 437.365V464.12L579.316 464.167L596.426 466.849L596.827 466.917V440.88L596.546 440.828L579.431 437.448ZM596.129 466.099L579.712 463.526V438.208L596.129 441.458V466.099ZM557.921 433.188L557.504 433.104V445.094H558.202V433.943L575.754 437.417V462.901L558.202 460.146V455.849H557.504V460.734L557.801 460.786L576.046 463.651L576.452 463.719V436.854L576.16 436.797L557.921 433.188ZM535.165 440.943V430.875H534.473V440.943H535.165ZM532.462 440.458V431.323H531.775V440.458H532.462ZM557.9 465.089L557.504 465.026V477.135H558.202V465.833L575.754 468.464V480.193H576.452V467.87L576.145 467.823L557.9 465.089ZM579.415 468.302L579.02 468.245V479.969H579.712V469.052L596.129 471.5V482.219H596.827V470.896L596.525 470.849L579.415 468.302ZM579.447 406.573L579.02 406.458V433.24L579.301 433.297L596.41 436.812L596.827 436.901V410.849L596.561 410.781L579.447 406.573ZM596.129 436.047L579.712 432.677V407.349L596.129 411.391V436.047ZM557.936 401.271L557.504 401.161V428.823L557.785 428.88L576.03 432.63L576.452 432.714V405.828L576.181 405.766L557.936 401.271ZM575.749 431.865L558.197 428.26V402.052L575.749 406.37V431.865ZM406.124 350.609L382.691 358.005L364.452 353.51L364.342 353.958L381.848 358.271L375.837 360.161L357.613 355.755L357.499 356.208L362.311 357.37V404.354H362.775V357.484L374.978 360.432L372.801 361.12L372.52 361.214V401.776H373.332V362.021L406.15 369.891L406.337 369.104L374.436 361.458L406.363 351.38L406.124 350.609ZM404.879 270.219V218.984L404.629 218.875L386.098 211.021L385.535 210.781V263.219L385.801 263.318L404.332 270.026L404.879 270.219ZM395.243 265.87L386.348 262.651V223.495L395.243 227.146V265.87ZM397.176 266.568L395.822 266.078V259.38L397.176 259.88V266.568ZM397.176 259.198L395.822 258.693V245.615L397.176 246.141V259.198ZM397.176 245.516L395.822 244.995V226.755L395.639 226.677L386.348 222.87V218.536L397.176 223.036V245.516ZM386.348 217.781V212L403.592 219.307L397.504 222.427L386.348 217.781ZM404.066 269.062L397.863 266.818V223.016L404.066 219.844V269.062ZM417.124 224.172L416.561 223.932V274.443L416.827 274.547L434.04 280.771L434.587 280.969V231.573L434.337 231.469L417.124 224.172ZM426.832 277.302L417.374 273.875V267.365L426.832 270.875V277.302ZM426.832 270.198L417.374 266.682V253.964L426.832 257.63V270.198ZM426.832 257.021L417.374 253.349V231.443L426.832 235.375V257.021ZM417.374 230.688V225.156L433.264 231.891L427.176 234.766L417.374 230.688ZM433.775 279.818L427.53 277.557V235.365L433.775 232.417V279.818ZM445.655 284.974L461.66 290.766L462.197 290.964V243.276L461.952 243.172L445.936 236.385L445.374 236.151V236.755L445.379 284.594V284.875L445.655 284.974ZM454.431 287.292L446.197 284.312V278.068L454.431 281.125V287.292ZM454.431 280.432L446.197 277.38V265.141L454.436 268.333V280.432H454.431ZM461.395 289.812L455.124 287.542V246.849L461.395 244.094V289.812ZM446.186 237.365L460.853 243.573L454.775 246.24L446.186 242.672V237.365ZM454.431 246.854V267.714L446.191 264.521L446.186 243.427L454.431 246.854ZM500.749 407.859V371.766L500.441 371.682L431.858 353.333L431.655 354.115L498.733 372.068L459.514 381.849L431.848 375.219L431.66 376.005L459.113 382.583V398.927H459.921V382.583L499.936 372.589V407.859H500.749ZM456.243 500.057L456.207 500.052L456.176 500.057L451.603 500.453L451.233 500.49V526.354L451.618 526.37L472.056 527.391H472.092L476.671 527.167L477.056 527.141V501.797L476.686 501.771L456.243 500.057ZM455.806 525.344L452.04 525.542V501.234L455.806 500.901V525.344ZM476.243 526.328L456.613 525.344V500.896L476.243 502.536V526.328ZM599.087 407.943L598.78 407.865L551.244 395.896V362.547H550.785V395.786L549.629 395.495L549.431 396.281L550.785 396.625V399.516L549.619 399.229L549.452 399.896L550.79 400.229V426.74L549.608 426.495L549.473 427.172L550.79 427.443V431.781L540.129 429.672L539.994 430.349L550.796 432.49V443.859H551.254V432.583L554.014 433.13V444.474H554.707V432.562L554.431 432.505L551.254 431.88V427.552L554.29 428.172L554.707 428.255V400.495L554.447 400.422L551.254 399.635V396.75L598.296 408.589L598.301 492.016H599.103L599.098 408.271V407.943H599.087ZM554.004 401.016V427.396L551.244 426.828V400.333L554.004 401.016ZM296.952 488.229H297.41V461.521L300.842 461.901V487.703H301.301V461.953L304.707 462.339V487.182H305.165V462.385L308.54 462.76V486.672H308.999V462.818L312.332 463.188V486.161H312.79V463.24L316.092 463.609V485.651H316.551V463.661L319.66 464.01V485.156H320.473V463.292L320.113 463.25L279.134 458.661V443.422L284.212 444.078V445.307H284.676V444.135L296.04 445.599L296.092 445.146L284.676 443.672V439.568L302.613 441.969V447.656H303.191V442.042L309.348 442.859V445.604H309.926V442.943L315.973 443.75V444.245H316.546V443.828L318.441 444.083L318.52 443.505L316.546 443.24L316.551 404.755L322.499 403.135V442.906H323.077V402.974L326.816 401.953L326.676 401.432L323.077 402.417V401.458H322.499V402.568L316.551 404.188V403.25H315.978V404.344L309.926 405.995V405.073H309.348V406.151L303.197 407.828V406.917H302.618V407.984L295.988 409.792L296.134 410.312L302.618 408.542L302.613 441.37L284.676 438.964V436.5H284.212V438.906L279.145 438.24V428.964H278.603V438.161L269.702 436.969V434.464H269.238V436.911L254.275 434.911V432.359H253.806V434.844L238.41 432.786V430.188H237.947V432.724L222.087 430.599V427.953H221.624V430.542L214.551 429.594L214.488 429.589L214.431 429.604L190.217 436.328L190.004 436.385V446.25H190.582V442.74L195.134 441.536V444.953H195.598V441.411L208.895 437.885V441.443H209.353V437.766L214.212 436.479V440.057H214.79V436.328L217.822 435.521L221.613 436.01V438.188H222.077V436.073L237.931 438.115V439.417H238.4V438.172L253.796 440.151V441.427H254.259V440.208L269.223 442.135V443.396H269.691V442.198L278.592 443.349V458.594L234.53 453.667L234.087 453.615V493.943L234.462 493.969L278.582 497.13V509.109L215.686 505.438L215.66 505.901L278.582 509.573V558.068L0.847656 560.922V561.849L286.207 558.927L286.197 558.005L279.145 558.078V509.615L286.186 510.026L286.217 509.562L279.145 509.146V497.172L286.176 497.682L286.233 496.875L285.525 496.828V460.193L289.061 460.583V490.255H289.525V460.641L293.025 461.026V489.729H293.483V461.083L296.936 461.469L296.952 488.229ZM309.931 406.562L315.983 404.917L315.978 443.172L309.931 442.365V406.562ZM303.202 408.401L309.353 406.719V442.286L303.197 441.464L303.202 408.401ZM279.145 438.828L284.217 439.5V443.609L279.145 442.958V438.828ZM195.139 441.052L190.587 442.26V436.833L195.139 435.568V441.052ZM208.9 437.411L195.603 440.932V435.438L208.9 431.75V437.411ZM214.223 436.005L209.363 437.292V431.615L214.223 430.271V436.005ZM221.624 435.547L217.848 435.057L217.816 435.292L217.764 435.068L214.801 435.854V430.219L221.624 431.13V435.547ZM237.947 437.651L222.087 435.604V431.193L237.947 433.312V437.651ZM253.806 439.693L238.41 437.708V433.38L253.806 435.438V439.693ZM269.238 441.677L254.275 439.75V435.49L269.238 437.49V441.677ZM238.702 493.469L234.9 493.198V454.531L238.702 454.953V493.469ZM243.108 493.781L239.165 493.5V455.005L243.108 455.448V493.781ZM247.473 494.094L243.572 493.812V455.495L247.473 455.932V494.094ZM251.79 494.401L247.931 494.125V455.984L251.79 456.411V494.401ZM256.092 494.714L252.259 494.432V456.469L256.087 456.896V494.714H256.092ZM260.342 495.021L256.551 494.75V456.948L260.342 457.375V495.021ZM264.546 495.318L260.801 495.047V457.422L264.546 457.839V495.318ZM268.728 495.615L265.02 495.349V457.896L268.728 458.307V495.615ZM272.853 495.911L269.186 495.656V458.365L272.853 458.771V495.911ZM276.962 496.214L273.316 495.948V458.828L276.962 459.229V496.214ZM278.603 496.328L277.426 496.24V459.286L278.603 459.417V496.328ZM278.603 442.891L269.702 441.74V437.562L278.603 438.75V442.891ZM281.03 496.5L279.145 496.365V459.474L281.03 459.693V496.5ZM285.066 496.786L281.499 496.531V459.74L285.066 460.135V496.786ZM353.806 436.5H354.379V427.964H353.806V436.5ZM328.941 424.047V441.594H329.52V424.047H328.941ZM342.129 439.01V426.031H341.556V439.01H342.129ZM335.879 440.297V425.047H335.301V440.297H335.879ZM348.301 437.75V427.01H347.723V437.75H348.301Z" fill="#B3B3B3" fill-opacity="0.3"/>
</g>
<mask id="mask1_1574_28677" style="mask-type:luminance" maskUnits="userSpaceOnUse" x="0" y="162" width="1095" height="404">
<path d="M0.5 162.666H1094.5V565.333H0.5V162.666Z" fill="white"/>
</mask>
<g mask="url(#mask1_1574_28677)">
<path d="M302.316 380.005L302.717 379.88V286.484L301.889 286.885L258.483 307.916L258.16 308.072V308.437L258.155 393.499V394.291L258.905 394.046L302.316 380.005ZM301.561 379.041L274.9 387.661V312.937L301.561 300.604V379.041ZM301.561 288.327V299.458L274.332 312.057L260.296 308.312L301.561 288.327ZM259.306 309.124L273.863 313.005V387.999L259.301 392.708L259.306 309.124ZM802.207 563.499V558.229L801.749 558.223L789.848 558.067V554.906L789.452 554.9L774.848 554.598V551.536L774.452 551.531L756.077 551.02V510.973L774.509 513.114L774.603 512.307L755.723 510.119L755.27 510.067V550.999L750.061 550.859V509.468L749.707 509.421L705.342 504.281L704.889 504.223V549.614L699.275 549.458L699.27 503.937V503.577L698.915 503.536L672.863 500.515V492.854L749.608 502.942L750.061 503.005V425.229L749.764 425.145L705.754 412.124V404.979L749.535 418.614L750.061 418.775V396.38H749.254V417.676L705.759 404.13V360.156L705.467 360.041L657.733 341.088L657.603 341.036L657.462 341.067L618.457 350.437V281.327L618.155 281.192L503.743 227.348L503.525 227.817L503.754 227.317L368.092 163.479L367.822 163.354L367.566 163.515L265.54 227.614L265.28 227.77V275.921L213.858 260.39L213.671 260.333L213.499 260.437L178.243 282.588L178.04 282.718V292.614L178.363 292.692L207.697 300.364L180.728 315.229L141.525 305.833L141.358 305.796L141.212 305.89L115.447 322.077L115.259 322.192V330.76L115.577 330.822L142.191 336.463L115.441 351.213L115.202 351.343V405.697L115.598 405.76L178.004 414.749V459.104L178.441 459.15L192.488 460.572V498.327L115.587 509.15L115.212 509.208V557.593L0.847656 559.421V560.229L285.556 555.676V563.499H0.847656V564.781H1094.16V563.499H802.207ZM789.035 555.697V558.057L602.249 555.614V551.843L789.035 555.697ZM672.853 548.729V544.463L673.103 544.473V548.734L672.853 548.729ZM673.103 549.546V552.499L672.853 552.494V549.541L673.103 549.546ZM660.379 543.202V519.994L675.66 521.213V543.765L660.379 543.202ZM672.046 544.437V552.473L663.452 552.296V544.124L672.046 544.437ZM672.046 520.109L660.009 519.145L659.572 519.109V543.979L659.962 543.994L662.863 544.104V552.286L651.54 552.057V543.682L654.176 543.781L654.592 543.796V518.713L654.223 518.682L648.03 518.187L648.025 469.692L672.046 467.202V520.109ZM637.176 542.348V518.13L653.785 519.458V542.958L637.176 542.348ZM650.962 543.661V552.051L648.03 551.984V543.557L650.962 543.661ZM647.337 543.531V551.968L640.936 551.833V543.291L647.337 543.531ZM640.353 543.27V551.822L639.707 551.812V543.249L640.353 543.27ZM647.691 469.025L606.228 462.145V455.421L669.749 466.744L647.691 469.025ZM647.332 469.666L647.337 518.13L639.707 517.52V482.869L639.426 482.827L606.223 478.182V462.843L647.332 469.666ZM639.061 483.421V517.468L636.801 517.291L636.369 517.249V543.124L636.759 543.145L639.061 543.234V551.801L627.52 551.562V542.801L630.473 542.911L630.895 542.921V516.817L630.52 516.786L611.598 515.281L611.16 515.239V542.197L611.551 542.208L615.207 542.343V551.301L606.223 551.119V478.827L639.061 483.421ZM611.973 541.421V516.119L630.082 517.567V542.088L611.973 541.421ZM626.947 542.781V551.546L615.79 551.317V542.364L626.947 542.781ZM705.686 505.14L749.249 510.187V550.833L705.686 549.635V505.14ZM774.035 552.327V554.583L673.681 552.515V549.562L774.035 552.327ZM698.452 504.296L698.457 549.437L673.686 548.749V544.489L676.051 544.577L676.473 544.604V520.458L676.103 520.426L672.858 520.171V501.327L698.452 504.296ZM672.52 466.416L606.228 454.588V450.02L639.087 445.723L698.775 457.973L705.197 459.291L726.676 463.702L672.858 469.109V466.473L672.52 466.416ZM638.645 436.755V444.848L606.228 449.093V441.322L638.645 436.755ZM606.228 440.385V407.775L647.223 400.452V437.546L639.212 435.775L639.124 435.755L639.046 435.77L606.228 440.385ZM705.749 412.968L749.244 425.833L749.249 502.077L672.853 492.041V470.031L729.775 464.322L730.191 464.281V455.88L729.827 455.796L705.754 450.473V412.968H705.749ZM618.447 351.395L657.103 342.109V388.916L647.816 386.025L647.681 386.468L647.837 385.973L618.447 376.822V351.395ZM368.41 164.854L503.28 228.317L503.29 228.291L617.405 281.994V377.583L617.77 377.702L647.525 386.968L647.54 386.911L657.421 389.989L658.025 390.176V342.208L704.827 360.786V451.208L705.186 451.291L729.259 456.614V463.291L705.374 458.385L698.952 457.072L639.561 444.874V436.791L698.754 449.869L699.322 449.994V365.697L699.02 365.583L665.181 352.676L664.551 352.437V399.88L647.811 394.926L647.551 395.812L662.999 400.38L655.546 401.687L647.806 399.458L647.702 399.426L647.592 399.447L606.223 406.843V399.187L605.874 399.093L576.353 391.161L608.999 384.463L647.53 395.864L647.822 394.864L609.665 383.572V286.692L609.353 286.557L503.723 238.489L503.733 238.463L368.41 176.89V164.854ZM692.072 366.999L665.483 357.057V353.781L697.316 365.926L692.072 366.999ZM698.4 366.531V448.843L692.441 447.531V367.749L698.4 366.531ZM691.634 367.692V447.354L648.145 437.749V400.52L655.395 402.609L655.494 402.635L655.603 402.619L665.103 400.958L665.483 400.885V357.921L691.634 367.692ZM519.52 429.406L420.113 410.312L420.009 410.296L419.895 410.317L358.092 424.025L357.681 424.119V427.749L330.848 423.515L419.025 402.729L545.301 428.354L519.952 432.562V429.484L519.52 429.406ZM539.796 456.281L507.775 451.202V445.848L561.546 454.843L540.139 457.645V456.338L539.796 456.281ZM540.139 484.239L543.983 484.692L542.634 484.817L541.931 484.734L540.139 484.525V484.239ZM539.327 457.025V483.494L507.775 479.76V452.02L539.327 457.025ZM507.342 444.723L506.738 444.624V479.635L498.556 478.661V443.255L498.118 443.182L427.686 431.395V422.145L564.54 446.822V454.286L507.342 444.723ZM429.473 438.807L429.4 438.791L429.332 438.807L373.822 448.734V444.395L373.426 444.343L368.134 443.588L427.176 432.374L494.967 443.713L489.592 444.551L489.202 444.609V448.265L429.473 438.807ZM489.202 449.083V477.557L429.816 470.536V439.676L489.202 449.083ZM429.009 439.687V470.437L428.228 470.348L428.197 470.343L428.15 470.348L373.827 477.63V449.557L429.009 439.687ZM356.03 444.833L306.176 454.301V446.843L426.645 422.166V431.411L365.03 443.119L364.603 443.202V478.869L356.65 479.932V444.713L356.03 444.833ZM333.41 455.958L333.072 456.02V457.692L309.046 454.817L355.608 445.963V451.989L333.41 455.958ZM355.613 452.817V480.077L333.884 482.984V456.702L355.613 452.817ZM217.874 400.593L217.79 400.583L217.707 400.609L198.551 407.01L198.556 406.979L191.389 405.88L251.212 385.286V404.187L251.697 404.27L290.91 410.781L291.025 410.801L291.145 410.77L295.816 409.489V413.317L217.874 400.593ZM295.816 414.015V446.27L224.118 437.145L224.025 437.135L223.941 437.156L218.165 438.64V401.354L295.816 414.015ZM196.947 407.551L192.712 408.968L192.473 409.051V445.202L187.16 446.562V406.051L196.947 407.551ZM188.514 405.437L251.212 383.619V384.801L190.41 405.729L188.514 405.437ZM193.165 409.541L217.467 401.416V438.812L193.165 445.02V409.541ZM251.212 371.734L250.931 371.838L214.197 364.557V298.176L251.212 307.999V371.734ZM290.967 409.619L254.29 403.531L310.54 386.202L326.077 389.265V399.973L290.967 409.619ZM327.618 346.812L418.228 313.687V401.338L327.618 422.697V346.812ZM326.587 345.557L326.072 345.744V388.093L311.087 385.145V275.244L350.723 287.9V336.729L326.587 345.557ZM418.103 311.166V312.093L351.874 336.307V335.588L418.103 311.166ZM373.077 326.906V193.505L472.358 237.114V327.234L418.634 310.197L418.499 310.161L418.374 310.202L373.077 326.906ZM372.035 327.291L351.879 334.723V287.057L351.478 286.932L310.686 273.916L310.462 273.843L310.254 273.947L291.848 283.145V240.041L372.035 193.619V327.291ZM296.395 409.327L326.072 401.161V424.317L326.728 424.426L357.676 429.307V435.234L305.551 445.916L305.134 445.999V447.458L296.395 446.348V409.327ZM358.723 435.025V424.947L419.488 411.473V422.577L358.723 435.025ZM420.53 422.359V411.442L518.9 430.338V437.546L427.259 421.025L427.16 420.999L427.066 421.025L420.53 422.359ZM365.639 444.176L372.895 445.202V477.765L365.639 478.734V444.176ZM490.124 445.395L497.509 444.239V478.541L490.124 477.671V445.395ZM419.775 401.317V313.635L548.759 354.234V427.494L419.775 401.317ZM419.233 311.843L418.988 311.765L418.915 311.796V311.14L605.363 370.255V378.411L550.306 361.76V353.104L549.764 352.932L419.233 311.843ZM516.103 315.9L473.405 300.827V253.114L565.316 291.551V300.374L516.103 315.9ZM565.316 301.343V356.708L516.561 341.249V316.729L565.316 301.343ZM515.634 316.713V340.952L473.405 327.562V301.812L515.634 316.713ZM550.301 370.458L575.244 377.713L550.301 383.208V370.458ZM550.301 384.031L576.973 378.161L578.514 377.817L576.999 377.374L550.306 369.619V362.614L604.139 378.895L563.061 387.593L550.311 384.161V384.031H550.301ZM605.842 379.354L606.165 379.281V369.661L605.884 369.567L566.129 356.963V301.088L608.624 287.676V383.604L574.379 390.63L564.775 388.046L605.842 379.354ZM367.895 177.869L503.285 239.468L503.316 239.411L503.301 239.442L607.775 286.973L566.129 300.114V291.01L565.874 290.906L473.4 252.229V236.437L473.082 236.296L372.759 192.229L372.514 192.124L372.29 192.255L291.27 239.161L275.858 233.765L367.895 177.869ZM290.806 240.098V283.661L275.165 291.479V234.63L290.806 240.098ZM266.389 228.38L367.306 164.979V176.937L274.327 233.416L274.056 233.577V292.031L266.379 295.864V228.38H266.389ZM309.931 275.395V385.187L252.374 402.916V304.166L309.931 275.395ZM214.165 261.4L265.28 276.833V285.463L214.165 270.536V261.4ZM178.91 283.202L213.296 261.598V270.619L178.91 291.505V283.202ZM179.582 292.119L213.79 271.338L265.28 286.374V296.416L251.535 303.291L251.212 303.452V307.041L213.848 297.124L213.665 297.083L213.504 297.171L208.796 299.765L179.582 292.119ZM141.827 306.755L179.676 315.817L170.202 321.041L141.827 314.468V306.755ZM116.051 322.65L141.014 306.973V314.562L116.051 329.729V322.65ZM116.733 330.255L141.488 315.213L169.139 321.619L143.27 335.88L116.733 330.255ZM116.113 351.9L213.27 298.354V364.624L116.113 404.619V351.9ZM177.988 413.817L117.384 405.093L213.775 365.411L249.259 372.452L223.035 382.098L215.108 380.65L215.02 380.635L214.936 380.666L163.296 400.197L162.16 400.63L163.363 400.817L177.988 403.088V413.817ZM178.306 398.562L177.988 398.682V402.447L164.66 400.38L215.077 381.307L221.853 382.546L178.306 398.562ZM181.228 458.479L214.895 450.546V454.291L192.738 459.281L192.467 459.348V459.619L181.228 458.479ZM214.9 455.005V495.182L193.165 498.244V459.906L214.9 455.005ZM122.405 516.489V557.484L116.087 557.583V509.973L215.395 496.01L215.77 495.952V449.452L215.233 449.577L178.952 458.13V399.348L251.072 372.812L251.207 372.838V382.604L186.514 405.104L186.191 405.223V447.801L186.79 447.65L223.572 438.244V504.291L122.79 516.447L122.405 516.489ZM134.879 557.275L123.28 557.458V517.296L134.879 517.791V557.275ZM142.306 521.145V557.161L135.691 557.265V517.234L217.41 507.682V513.374L142.624 521.124L142.306 521.145ZM259.139 555.286L143.004 557.15V521.775L213.822 514.437L259.139 516.692V555.286ZM217.556 514.046L217.77 514.025L259.342 516.124L217.556 514.046ZM263.603 555.218L259.712 555.275V516.682L263.53 516.333L263.598 516.338V555.218H263.603ZM285.556 554.869L264.301 555.213V515.682L263.967 515.666L218.103 513.359V507.661L285.556 511.494V554.869ZM285.556 510.682L217.78 506.827H217.712L135.238 516.468L134.879 516.51V516.994L128.02 516.692L223.816 505.14L224.03 505.15L285.556 508.833V510.682ZM285.556 490.109V507.869L224.546 504.218V438.171L305.139 448.421V455.395L305.598 455.452L333.077 458.739V483.093L294.54 488.265L294.259 488.307V488.963L286.118 490.041L285.556 490.109ZM305.212 563.499H295.702V500.327L296.53 500.229L305.207 500.833V503.557L300.603 504.036L300.238 504.072V558.833L300.65 558.827L305.207 558.781V563.499H305.212ZM328.561 501.926V557.749L301.056 558.031V504.807L328.561 501.926ZM333.254 563.499H305.858V558.781L328.978 558.546H329.379V501.031L328.931 501.077L305.858 503.494V500.833L333.254 497.791V563.499ZM388.395 559.952L367.113 560.072L338.165 560.239V497.854L367.155 494.671L388.4 492.338V559.952H388.395ZM388.395 491.697L367.082 494.036L337.806 497.244L337.52 497.275V560.89H337.842L367.113 560.718L388.395 560.598V563.505H333.952V496.895L388.395 490.796V491.697ZM388.395 490.088L333.566 496.234L333.254 496.27V497.14L305.53 500.213L300.046 499.833L388.395 489.76V490.088ZM426.525 563.499H389.551V488.458L388.91 488.536L295.061 499.239L294.546 499.301V563.505H286.842V491.234L426.525 472.755V563.499ZM427.171 471.374L427.087 471.385L294.905 488.874V488.859L428.197 470.989L539.327 484.14V484.437L427.243 471.385L427.171 471.374ZM549.639 563.499H488.301V562.27L549.639 562.458V563.499ZM549.639 559.952L491.358 559.614V496.13C510.785 497.952 530.217 499.786 549.639 501.604V559.952ZM549.639 500.963C530.119 499.13 510.592 497.296 491.066 495.458L490.717 495.426V560.249H491.04L549.645 560.598V561.775L488.306 561.588V493.812L549.645 499.755V500.963H549.639ZM549.639 499.114L488.301 493.171V491.463L549.639 497.624V499.114ZM549.639 496.468L487.775 490.255L487.139 490.187V563.499H427.811V472.744L541.785 486.015L549.634 486.932V496.468H549.639ZM549.639 485.635L547.16 485.348L548.467 485.223L549.639 485.359V485.635ZM552.191 563.499H550.608V484.041L550.077 484.093L546.973 484.4L540.139 483.593V478.275L552.191 476.989V563.499ZM559.134 563.499H553.155V476.999L559.139 477.791L559.134 563.499ZM562.973 563.499H560.098V562.494L562.973 562.505V563.499ZM562.973 561.817L560.098 561.801V500.765L562.973 501.046V561.817ZM562.973 500.4L560.098 500.119V498.671L562.973 498.958V500.4ZM562.973 497.801L560.098 497.515V488.15L562.973 488.484V497.801ZM562.973 487.187L560.608 486.911L562.973 486.692V487.187ZM565.504 563.499H563.936V485.635L563.405 485.687L560.098 485.994V479.307L565.504 478.739V563.499ZM572.186 563.499H566.473V478.749L572.186 479.51V563.499ZM575.77 563.499H573.15V562.531L575.77 562.541V563.499ZM575.77 561.854L573.15 561.843V502.025L575.77 502.286V561.854ZM575.77 501.645L573.15 501.385V499.984L575.77 500.244V501.645ZM575.77 499.088L573.15 498.827V489.671L575.77 489.973V499.088ZM575.77 488.676L573.52 488.416L575.77 488.213V488.676ZM578.306 563.499H576.738V487.161L576.212 487.213L573.15 487.489V480.937L578.306 480.426V563.499ZM584.723 563.499H579.264V480.442L584.723 481.161V563.499ZM588.103 563.499H585.686V562.572L588.103 562.583V563.499ZM585.686 561.88V503.239L588.092 503.479L588.103 561.89L585.686 561.88ZM588.092 491.406V500.322L585.686 500.077V491.124L588.092 491.406ZM585.957 489.869L588.092 489.682V490.114L585.957 489.869ZM588.092 501.489V502.838L585.686 502.598V501.244L588.092 501.489ZM589.056 563.499L589.051 489.15V488.624L588.525 488.671L585.681 488.916V482.515L590.603 482.041L590.608 563.499H589.056ZM596.796 563.499H591.572L591.566 482.062L596.796 482.744V563.499ZM600.967 563.499H597.759V492.536L600.967 492.906V563.499ZM597.759 491.239V481.906L597.337 481.854L591.155 481.041L591.092 481.036L591.046 481.041L585.686 481.551V480.322L585.27 480.26L578.848 479.416L578.79 479.411L578.733 479.416L573.15 479.973V478.671L572.728 478.614L566.051 477.734L565.994 477.729L565.936 477.734L560.092 478.333V476.952L559.681 476.895L552.728 475.979L552.665 475.968L552.613 475.979L540.129 477.307V458.697L565.113 455.426L565.566 455.364V445.958L565.139 445.88L519.931 437.734V434.119L549.634 429.192L550.285 429.077V385.109L605.285 399.895V551.098L602.233 551.036V491.765L601.66 491.697L597.759 491.239ZM801.28 563.499H602.249V556.531L801.28 559.14V563.499ZM774.499 506.218L774.608 505.411L756.077 502.979V427.859L774.441 433.291L774.671 432.51L755.785 426.926L755.264 426.77V503.687L755.613 503.734L774.499 506.218ZM774.436 426.374L774.676 425.593L756.077 419.801V398.536H755.27V420.395L755.561 420.489L774.436 426.374ZM406.889 327.963L406.035 328.255L335.874 352.697L335.441 352.848V411.932L336.243 411.729L406.405 393.989L406.895 393.869V327.963H406.889ZM352.717 406.239L336.733 410.275V353.989L352.717 357.812V406.239ZM338.155 353.27L405.608 329.77V339.468L353.217 356.869L338.155 353.27ZM353.759 405.979V357.781L405.608 340.562V392.869L353.759 405.979ZM431.941 327.63L431.113 327.38V393.437L431.618 393.551L540.155 417.176L540.936 417.348V360.322L540.478 360.187L431.941 327.63ZM522.181 411.952L432.4 392.406V339.932L522.181 365.609V411.952ZM432.4 338.848V329.104L538.103 360.812L522.712 364.676L432.4 338.848ZM539.65 415.755L523.223 412.176V365.63L539.65 361.499V415.755ZM121.993 356.374L121.743 356.505V394.557L122.389 394.275L203.936 358.88L204.212 358.76V358.458L204.223 313.65V312.885L203.546 313.239L121.993 356.374ZM130.993 389.541L122.676 393.15V357.281L130.993 358.854V389.541ZM203.296 358.156L180.936 367.859L141.243 360.364L203.306 329.484L203.296 358.156ZM203.301 328.713L140.009 360.208L139.087 360.666L140.103 360.859L179.806 368.359L131.806 389.192V358.77L203.306 322.062V328.713H203.301ZM203.301 321.15L131.337 358.098L123.509 356.614L203.306 314.426L203.301 321.15ZM146.587 522.947V555.666L146.915 555.65L217.764 554.156L254.572 554.536H254.895V517.729L254.592 517.713L217.78 515.952H217.733L146.884 522.921L146.587 522.947ZM218.077 516.609L254.243 518.338V553.89L218.077 553.52V516.609ZM147.228 523.531L217.431 516.63V553.52L147.228 555.01V523.531Z" fill="#B3B3B3" fill-opacity="0.3"/>
</g>
</svg>
