<svg width="595" height="132" viewBox="0 0 595 132" fill="none" xmlns="http://www.w3.org/2000/svg">
<mask id="mask0_1574_29604" style="mask-type:luminance" maskUnits="userSpaceOnUse" x="-2" y="-5" width="597" height="158">
<path d="M-2 -5H595V153H-2V-5Z" fill="white"/>
</mask>
<g mask="url(#mask0_1574_29604)">
<path d="M603.296 122.391L604.614 121.636L603.296 120.885L567.215 100.041L566.772 99.7742L566.331 100.041L474.831 152.884H478.33L565.905 102.328V141.961L546.992 152.884H550.491L565.905 143.983V152.884H567.666V143.996L583.073 152.884H586.575L568.547 142.467L603.296 122.391ZM567.656 102.328L601.095 121.636L567.656 140.947V102.328ZM-423.672 69.5441L-425 68.7861L-425.434 68.5198V70.5547L-425 70.3089L-423.672 69.5441ZM-369.543 -24.2295L-370.871 -24.9841L-425.434 -56.498V-54.4734L-373.072 -24.2295L-407.402 -4.39929L-425.434 -14.8232V-12.7882L-409.156 -3.38525L-425.434 6.01428V8.05603L-370.877 -23.4545L-369.543 -24.2295ZM-369.543 -357.622L-370.871 -358.383L-425.434 -389.887V-387.859L-373.065 -357.615L-407.395 -337.788L-425.434 -348.215V-346.177L-409.156 -336.777L-425.434 -327.371V-325.34L-370.877 -356.854L-369.543 -357.622ZM-423.672 -263.848L-425 -264.61L-425.434 -264.859V-262.831L-425 -263.087L-423.672 -263.848ZM-263.072 -419.113L-262.639 -419.362L-208.957 -450.368L-173.313 -429.786L-172.879 -429.53L-172.439 -429.786L-136.355 -450.624L-135.034 -451.385L-136.355 -452.15L-226.558 -504.242L-226.995 -504.491L-227.429 -504.235L-299.157 -462.809L-369.56 -503.474L-351.511 -513.897H-355.027L-389.35 -494.071L-423.679 -513.897H-425.434V-512.88L-263.506 -419.362L-263.072 -419.113ZM-372.192 -484.159L-387.595 -493.06L-372.192 -501.954V-484.159ZM-300.03 -442.481L-370.437 -483.155V-501.961L-300.02 -461.3L-300.03 -442.481ZM-226.101 -501.947L-138.543 -451.382L-172.873 -431.562L-226.108 -462.304V-501.947H-226.101ZM-298.262 -441.467V-461.3L-227.859 -501.954V-462.311L-281.097 -431.555L-298.262 -441.467ZM-226.995 -460.788L-210.711 -451.382L-263.079 -421.138L-279.36 -430.544L-226.995 -460.788ZM-317.618 -492.299L-317.181 -492.049L-316.748 -492.299L-299.143 -502.46L-281.541 -492.292L-281.104 -492.043L-280.664 -492.292L-243.273 -513.897H-246.795L-281.111 -494.071L-298.709 -504.242L-299.143 -504.491L-299.58 -504.235L-317.188 -494.071L-333.466 -503.474L-315.434 -513.897H-318.956L-335.674 -504.235L-336.995 -503.474L-335.667 -502.716L-317.618 -492.299ZM79.6884 -492.049L80.1253 -492.299L117.53 -513.897H114.018L79.6884 -494.067L62.5304 -503.979V-513.897H60.776V-504.996L45.369 -513.897H41.85L79.2549 -492.292L79.6884 -492.049ZM656.985 -492.043L657.432 -492.292L694.807 -513.897H691.308L656.975 -494.071L639.797 -503.986V-513.897H638.042V-504.996L622.645 -513.897H619.147L656.528 -492.292L656.985 -492.043ZM727.392 -513.897L728.696 -513.129L729.146 -512.88V-513.897H727.392ZM711.108 -504.491L710.668 -504.235L692.629 -493.811L691.315 -493.053L692.629 -492.292L709.347 -482.636L656.552 -452.136L655.248 -451.375L656.552 -450.614L710.674 -419.356L729.153 -408.689V-410.724L711.555 -420.889L694.824 -430.544L711.555 -440.207L711.982 -440.456V-460.279L729.153 -450.368V-452.399L711.982 -462.318V-501.954L729.153 -492.043V-494.071L711.555 -504.235L711.108 -504.491ZM710.234 -441.467L693.062 -431.555L658.723 -451.382L710.214 -481.124V-441.467H710.234ZM710.234 -484.159L694.807 -493.06L710.234 -501.961V-484.159ZM693.069 -410.724L692.629 -410.468L584.384 -347.959L583.073 -347.191L584.384 -346.44L638.513 -315.186L638.953 -314.933L639.394 -315.186L675.478 -336.023L676.785 -336.784L675.478 -337.546L640.722 -357.625L656.999 -367.032L709.357 -336.795L638.953 -296.127L532.459 -357.622L566.785 -377.438L584.377 -367.277L584.824 -367.014L585.264 -367.277L603.303 -377.688L604.607 -378.452L603.293 -379.214L567.209 -400.051L566.768 -400.3L566.328 -400.051L494.607 -358.626L478.336 -368.032L566.768 -419.113L620.451 -388.108L620.901 -387.859L621.342 -388.108L675.454 -419.356L676.768 -420.12L675.454 -420.882L586.555 -472.212L602.846 -481.619L638.472 -461.037L638.916 -460.781L639.356 -461.037L657.402 -471.454L658.705 -472.216L657.402 -472.974L586.561 -513.897H583.063L655.231 -472.216L638.947 -462.806L603.31 -483.398L602.869 -483.647L602.422 -483.398L584.824 -473.23L567.666 -483.135V-513.897H565.905V-482.131L566.345 -481.878L583.957 -471.71V-452.911L531.148 -483.411L530.715 -483.66L530.261 -483.411L512.229 -472.984L511.799 -472.735V-451.897L494.631 -441.986L460.308 -461.812L550.484 -513.897H546.972L459.397 -463.322V-502.961L478.323 -513.897H474.811L458.53 -504.491L442.246 -513.897H438.747L457.666 -502.961V-463.318L387.253 -503.986V-513.897H385.498V-504.996L370.084 -513.897H366.579L494.167 -440.207L494.607 -439.951L495.047 -440.207L531.131 -461.044L532.445 -461.799L531.142 -462.567L514.417 -472.223L530.691 -481.622L637.179 -420.131L620.894 -410.724L549.187 -452.15L548.747 -452.406L548.307 -452.15L494.617 -421.148L350.742 -504.235L350.302 -504.491L349.861 -504.235L314.211 -483.654L279.895 -503.477L297.923 -513.897H294.418L277.683 -504.235L277.253 -503.972V-484.156L243.8 -503.474L261.839 -513.897H258.341L241.606 -504.235L240.285 -503.467L241.599 -502.716L294.418 -472.223L278.13 -462.809L207.733 -503.477L225.772 -513.897H222.263L187.934 -494.071L153.611 -513.897H150.095L151.416 -513.129L313.77 -419.362L314.207 -419.113L314.648 -419.362L386.369 -460.788L420.695 -440.968L386.369 -421.138L368.781 -431.306L368.34 -431.562L367.9 -431.306L260.102 -369.049L189.695 -409.707L224.025 -429.53L240.305 -420.131L223.571 -410.468L222.263 -409.714L223.577 -408.949L259.661 -388.115L260.102 -387.862L260.542 -388.115L296.626 -408.949L297.933 -409.714L296.626 -410.468L134.251 -504.235L133.818 -504.491L133.378 -504.235L115.339 -493.811L114.018 -493.06L115.339 -492.299L132.063 -482.643L79.2549 -452.143L77.934 -451.382L79.2549 -450.617L240.295 -357.615L187.5 -327.115L186.186 -326.354L187.5 -325.596L241.63 -294.341L242.063 -294.092L242.503 -294.341L368.347 -367.014L384.628 -357.615L242.063 -275.279L170.342 -316.698L169.902 -316.954L169.468 -316.698L133.825 -296.117L116.22 -306.284L115.786 -306.534L115.349 -306.284L97.7475 -296.117L81.4632 -305.516L115.786 -325.346L133.388 -315.179L133.828 -314.929L134.265 -315.179L206.43 -356.854L207.74 -357.615L206.426 -358.376L116.206 -410.461L115.772 -410.717L115.339 -410.461L7.09366 -347.952L5.77277 -347.191L7.09366 -346.433L43.1709 -325.596L43.6043 -325.34L44.0446 -325.596L80.1287 -346.433L81.4496 -347.191L80.1287 -347.952L63.411 -357.608L79.6884 -367.008L114.018 -347.191L25.5726 -296.11L9.28833 -305.516L26.006 -315.172L27.3337 -315.933L26.0128 -316.684L-26.7889 -347.184L-10.0712 -356.84L-8.74347 -357.601L-10.0712 -358.366L-62.8729 -388.859L-10.5047 -419.1L5.77957 -409.69L-28.9836 -389.614L-30.3045 -388.852L-28.9836 -388.094L7.10046 -367.26L7.54077 -366.997L7.97424 -367.26L98.1741 -419.345L99.5018 -420.107L98.181 -420.868L9.28491 -472.223L25.5657 -481.622L61.2163 -461.044L61.6498 -460.788L62.0867 -461.044L80.1253 -471.461L81.4462 -472.216L80.1253 -472.974L9.29514 -513.897H5.77277L77.934 -472.216L61.6498 -462.809L26.0026 -483.398L25.5657 -483.647L25.1323 -483.398L7.53394 -473.23L-9.62405 -483.141V-513.897H-11.3784V-482.131L-10.9381 -481.878L6.66019 -471.71V-452.898L-46.1484 -483.398L-46.5819 -483.643L-47.0154 -483.398L-65.0608 -472.974L-65.5011 -472.724V-451.887L-82.6659 -441.975L-116.996 -461.799L-26.7923 -513.897H-30.3045L-118.75 -462.809L-135.915 -472.724V-492.548L-98.9536 -513.897H-102.466L-136.789 -494.071L-153.066 -503.477L-135.034 -513.897H-138.55L-155.267 -504.235L-155.708 -503.972V-484.159L-207.195 -513.897H-210.704L-83.1062 -440.207L-82.6727 -439.951L-82.2359 -440.207L-46.1552 -461.044L-44.8343 -461.799L-46.1484 -462.567L-62.8729 -472.216L-46.5819 -481.622L59.9056 -420.124L43.6248 -410.717L-28.103 -452.143L-28.5364 -452.399L-28.9767 -452.143L-82.6659 -421.145L-118.31 -441.73L-118.743 -441.979L-119.177 -441.73L-172.866 -410.724L-208.51 -431.306L-208.943 -431.562L-209.38 -431.306L-317.188 -369.046L-387.595 -409.707L-353.266 -429.53L-336.971 -420.131L-353.696 -410.468L-355.023 -409.714L-353.702 -408.949L-317.622 -388.115L-317.188 -387.859L-316.748 -388.115L-280.671 -408.949L-279.35 -409.714L-280.678 -410.468L-425.434 -494.071V-492.049L-282.865 -409.714L-317.188 -389.887L-334.346 -399.799V-420.633L-334.793 -420.889L-352.839 -431.306L-353.272 -431.562L-353.706 -431.306L-371.304 -421.145L-425.434 -452.399V-450.368L-373.065 -420.124L-389.79 -410.461L-390.23 -410.212V-390.389L-425.434 -410.724V-408.689L-336.988 -357.615L-389.783 -327.122L-391.111 -326.36L-389.783 -325.603L-353.706 -304.765L-353.272 -304.509L-352.839 -304.765L-245.027 -367.028L-228.743 -357.622L-335.667 -295.861L-336.988 -295.109L-335.66 -294.348L-299.58 -273.511L-299.143 -273.261L-298.709 -273.511L-263.066 -294.099L-246.781 -284.692L-299.143 -254.449L-406.962 -316.698L-407.395 -316.954L-407.835 -316.698L-425.434 -306.534V-304.506L-408.276 -314.421V-275.785L-425.434 -285.693V-283.668L-391.111 -263.841L-425.434 -244.025V-241.993L-390.23 -262.329V-222.682L-425.434 -202.35V-200.325L-335.234 -252.41L-318.949 -243.011L-425.434 -181.512V-179.488L-263.506 -85.9771L-263.072 -85.7176L-262.639 -85.9771L-208.957 -116.972L-174.62 -97.152L-190.918 -87.7457L-208.52 -97.91L-208.957 -98.1695L-209.39 -97.91L-317.188 -35.6537L-387.595 -76.3146L-353.266 -96.1414L-336.964 -86.735L-353.696 -77.0794L-355.023 -76.3112L-353.702 -75.5532L-317.618 -54.7294L-317.181 -54.4597L-316.741 -54.7294L-280.664 -75.5532L-279.343 -76.3146L-280.664 -77.0794L-425.434 -160.689V-158.647L-282.872 -76.3112L-317.195 -56.498L-334.353 -66.4029V-87.2403L-334.8 -87.4896L-352.842 -97.91L-353.279 -98.1695L-353.713 -97.91L-371.318 -87.7457L-425.434 -119.014V-116.979L-373.062 -86.7419L-389.797 -77.0794L-390.237 -76.8268V-56.9965L-425.434 -77.3286V-75.2971L-336.988 -24.2227L-389.783 6.26355L-391.111 7.03174L-389.783 7.79315L-335.667 39.0476L-335.234 39.3002L-334.8 39.0476L-299.157 18.4697L-282.865 27.8692L-317.622 47.9316L-318.949 48.7101L-317.622 49.4612L-299.583 59.8918L-299.15 60.1479L-298.709 59.8918L-263.066 39.3036L-246.788 48.6998L-299.139 78.9437L-406.962 16.6805L-407.395 16.4279L-407.835 16.6805L-425.434 26.8517V28.8867L-408.276 18.9818V57.6009L-425.434 47.6892V49.7241L-391.104 69.5475L-425.434 89.3607V91.4024L-390.23 71.0737V110.717L-425.434 131.042V133.07L-335.234 80.9786L-318.956 90.3781L-425.434 151.873V152.884H-423.679L-318.069 91.8975V131.534L-355.027 152.884H-351.504L-190.471 59.8918L-189.15 59.1305L-190.471 58.3555L-279.357 7.0249L-226.995 -23.1984L-210.704 -13.7989L-245.474 6.26355L-246.802 7.03174L-245.474 7.79315L-173.313 49.4612L-172.879 49.7241L-172.443 49.4612L-136.799 28.8798L-102.483 48.6998L-137.229 68.7861L-138.557 69.5441L-137.229 70.3055L-119.19 80.7225L-118.757 80.9786L-118.32 80.7225L-64.2109 49.4612L-62.8832 48.7101L-64.2109 47.9316L-117.013 17.4488L-100.728 8.04236L-47.0461 39.0476L-46.6058 39.3036L-46.1655 39.0476L-28.5603 28.8798L-12.2795 38.2862L-118.757 99.7913L-154.404 79.2065L-154.841 78.9504L-155.274 79.2065L-190.918 99.7742L-208.52 89.6099L-208.96 89.3607L-209.397 89.6099L-318.949 152.884H-315.427L-209.824 91.9111V131.555L-246.788 152.884H-243.266L-226.982 143.484L-210.701 152.884H-207.189L-225.234 142.47L-208.95 133.07L-191.352 143.235L-190.911 143.491L-190.478 143.235L-154.834 122.647L-120.511 142.467L-138.543 152.884H-135.027L43.618 49.7241L115.346 91.1429L115.779 91.4024L116.213 91.1429L152.297 70.3089L153.618 69.5441L152.297 68.7861L99.495 38.293L206.426 -23.4545L207.74 -24.2295L206.419 -24.9841L189.685 -34.6431L205.969 -44.0427L240.295 -24.2227L187.487 6.26355L186.186 7.03174L187.5 7.79315L223.584 28.6306L224.025 28.8798L224.465 28.6306L242.063 18.4697L276.379 38.2862L259.648 47.9316L258.347 48.7101L259.648 49.4612L277.686 59.8918L278.127 60.1479L278.57 59.8918L332.249 28.8798L348.534 38.2862L278.134 78.9504L170.335 16.6805L169.895 16.4279L169.455 16.6805L133.378 37.5248L132.057 38.2862L133.378 39.0476L186.186 69.5441L115.772 110.205L44.0446 68.7861L43.6112 68.5232L43.1777 68.7861L7.09366 89.6099L5.76593 90.3849L7.08682 91.1429L59.9056 121.639L25.1323 141.709L23.8114 142.47L25.1323 143.235L41.85 152.884H45.369L27.3235 142.47L60.776 123.148V152.884H62.5304V123.159L114.011 152.884H117.53L242.056 80.9786L258.341 90.3747L151.409 152.129L150.095 152.884H153.611V152.877L259.221 91.8975V131.541L222.257 152.884H225.769L350.295 80.9786L366.565 90.3747L258.334 152.884H261.846L367.46 91.8975V131.541L350.285 141.453L332.69 131.298L332.249 131.042L331.809 131.298L294.418 152.884H297.923L332.256 133.07L366.586 152.884H370.091L352.07 142.47L368.794 132.808L369.228 132.555V112.742L385.505 122.141V152.884H387.266V123.159L438.751 152.884H442.252L388.14 121.636L513.103 49.4612L514.414 48.7101L513.103 47.9316L496.375 38.2862L513.103 28.6306L514.414 27.8624L513.103 27.1078L478.336 7.0249L494.61 -2.3678L565 38.2862L422.016 120.885L420.702 121.636L422.016 122.391L458.1 143.235L458.54 143.491L458.98 143.235L620.901 49.7241L692.622 91.1429L693.062 91.399L693.503 91.1429L729.14 70.5547V68.5198L676.782 38.2862L729.14 8.05603V6.01428L711.971 15.926V-3.90424L711.541 -4.14322L676.782 -24.2227L693.045 -33.6188L729.136 -12.7882V-14.8232L693.933 -35.1553V-74.7918L729.136 -54.4597V-56.498L693.496 -77.0794L693.056 -77.3286L692.615 -77.0794L584.373 -14.5602L583.063 -13.8057L584.367 -13.0375L620.451 7.79315L620.901 8.04919L621.342 7.79315L675.024 -23.1984L709.354 -3.38525L675.024 16.4313L657.432 6.26355L656.992 6.01428L656.545 6.26355L620.918 26.8517L550.515 -13.7989L567.243 -23.4545L568.547 -24.2295L567.243 -24.9841L514.431 -55.4806L566.802 -85.7176L583.08 -76.3214L548.3 -56.2351L546.996 -55.4806L548.3 -54.7294L584.384 -33.8817L584.831 -33.6188L585.278 -33.8817L675.464 -85.9771L676.778 -86.735L675.464 -87.4896L586.578 -138.82L602.856 -148.226L729.14 -75.2971V-77.3286L693.94 -97.6573V-117.477L711.101 -127.389L729.14 -116.979V-119.014L711.971 -128.915V-168.552L729.14 -158.647V-160.689L711.541 -170.85L711.101 -171.099L710.651 -170.85L674.573 -150.002L673.263 -149.244L674.573 -148.476L691.308 -138.827L675.024 -129.431L531.142 -212.511L530.701 -212.767L530.254 -212.511L440.501 -160.682L424.217 -170.088L440.949 -179.737L442.256 -180.502L440.949 -181.263L388.147 -211.749L404.424 -221.156L458.1 -190.164L458.547 -189.908L458.987 -190.164L620.908 -283.672L692.629 -242.249L693.069 -242L693.51 -242.249L729.146 -262.838V-264.866L676.775 -295.103L729.146 -325.34V-327.371L711.978 -317.459V-337.283L711.548 -337.539L676.785 -357.615L693.062 -367.014L729.146 -346.177V-348.215L693.943 -368.544V-408.187L729.146 -387.862V-389.887L693.51 -410.468L693.069 -410.724ZM567.656 -397.77L601.095 -378.452L584.817 -369.046L567.656 -378.958V-397.77ZM528.933 -461.799L513.533 -452.904V-470.686L528.933 -461.799ZM585.694 -451.897V-470.7L673.27 -420.124L639.82 -400.813V-420.633L639.387 -420.889L585.694 -451.897ZM621.775 -409.195L638.059 -418.594V-399.795L621.778 -390.389V-409.195H621.775ZM549.614 -449.856L620.027 -409.195V-390.389L567.219 -420.889L566.779 -421.138L566.345 -420.889L549.614 -411.23V-449.856ZM495.495 -419.625L547.866 -449.862V-410.226L495.495 -379.982V-419.625ZM205.092 -484.159L189.691 -493.053L205.092 -501.954V-484.159ZM277.253 -442.481L206.849 -483.148V-501.954L277.253 -461.287V-442.481ZM-137.662 -473.742L-153.947 -483.148V-501.961L-137.662 -492.548V-473.742ZM-48.3499 -461.799L-63.7535 -452.904V-470.7L-48.3499 -461.799ZM8.40771 -451.887V-470.7L95.9726 -420.12L62.5269 -400.806V-420.626L62.0867 -420.882L8.40771 -451.887ZM44.4849 -409.202L60.776 -418.601V-399.799L44.4849 -390.392V-409.202ZM6.66019 -369.558L-26.7889 -388.869L6.66019 -408.194V-369.558ZM8.4043 -369.551V-387.35L23.8114 -378.452L8.4043 -369.551ZM-27.6763 -449.856L42.7374 -409.195V-389.375L25.5726 -379.463L8.40771 -389.371V-410.212L7.96741 -410.461L-10.0712 -420.889L-10.5115 -421.138L-10.9449 -420.889L-27.6797 -411.226L-27.6763 -449.856ZM-336.107 -400.813L-351.511 -409.714L-336.107 -418.608V-400.813ZM-336.101 -316.452L-353.272 -306.534L-387.582 -326.36L-336.101 -356.096V-316.452ZM-334.353 -317.459V-335.255L-318.943 -326.36L-334.353 -317.459ZM-318.062 -327.883L-334.346 -337.29V-358.127L-334.78 -358.383L-388.476 -389.388V-408.194L-318.062 -367.527V-327.883ZM-336.107 -67.4203L-351.511 -76.3146L-336.107 -85.2157V-67.4203ZM-388.476 109.7V71.0668L-355.023 90.3849L-388.476 109.7ZM-316.321 130.523V112.742L-300.911 121.629L-316.321 130.523ZM-300.03 120.123L-316.321 110.71V89.8728L-316.762 89.6099L-334.8 79.2065L-335.234 78.9437L-335.667 79.2065L-353.266 89.3675L-406.521 58.6115V18.9818L-300.03 80.4664V120.123ZM-191.785 140.954L-208.076 131.555V91.9111L-191.785 101.311V140.954ZM-155.708 121.141L-190.037 140.954V101.311L-155.708 81.4805V121.141ZM-119.624 140.954L-153.947 121.141V81.4805L-119.624 101.304V140.954ZM169.014 57.6009L135.569 38.2862L169.014 18.9818V57.6009ZM42.7374 109.7L9.28833 90.3849L42.7374 71.0532V109.7ZM114.899 151.371L44.4918 110.71V71.0532L114.899 111.728V151.371ZM187.053 110.71L116.653 151.361V111.728L187.053 71.0839V110.71ZM188.814 109.693V71.0668L222.263 90.3781L188.814 109.693ZM260.969 130.53V112.742L276.379 121.636L260.969 130.53ZM277.253 120.123L260.969 110.71V89.8728L260.542 89.6099L242.503 79.2065L242.063 78.9504L241.63 79.2065L224.035 89.3607L170.789 58.6115V18.975L277.277 80.48V120.123H277.253ZM620.908 6.01428L586.568 -13.8125L692.189 -74.7918V-35.1553L620.908 6.01428ZM675.911 17.9609L710.238 -1.86932V16.9332L675.911 36.7566V17.9609ZM675.911 39.8158L727.392 69.5441L693.062 89.3675L675.894 79.4558V39.8158H675.911ZM657.856 8.5545L674.136 17.9609V57.5941L657.856 48.1808V8.5545ZM656.985 49.7241L674.15 59.6495V78.4383L640.715 59.1237L656.985 49.7241ZM621.775 28.3813L656.115 8.5545V48.1808L638.947 58.0994L621.778 48.1808V28.3813H621.775ZM676.775 -149.244L710.234 -168.552V-128.932L693.943 -119.526V-139.332L693.51 -139.581L676.775 -149.244ZM675.898 -127.898L692.189 -137.304V-98.6714L675.898 -108.078V-127.898ZM565.898 -397.77V-378.965L530.251 -358.376L529.821 -358.12V-337.296L495.495 -317.459L495.481 -357.103L565.898 -397.77ZM495.064 -294.341L495.495 -294.59V-315.435L529.821 -335.258V-315.442L530.244 -315.186L546.979 -305.523L459.414 -254.954V-293.59L476.132 -283.934L476.586 -283.678L477.026 -283.934L495.064 -294.341ZM441.372 -306.028V-345.665L475.705 -325.848V-286.202L441.372 -306.028ZM477.452 -286.198V-325.852L493.737 -335.255V-295.615L477.452 -286.198ZM493.737 -357.096V-338.3L477.449 -347.713V-366.519L493.737 -357.096ZM315.091 -482.131L349.431 -501.954V-462.318L315.091 -442.481V-482.131ZM295.309 -432.06L279.021 -441.473V-461.287L295.309 -470.7V-432.06ZM296.619 -472.974L279.011 -483.141V-501.954L313.337 -482.131V-442.481L297.053 -451.887V-472.728L296.619 -472.974ZM314.207 -421.138L297.049 -431.05V-449.856L313.77 -440.207L314.207 -439.951L314.648 -440.207L350.285 -460.788L366.565 -451.385L314.207 -421.138ZM386.812 -462.56L386.372 -462.809L385.939 -462.56L368.34 -452.392L351.175 -462.304V-501.954L493.744 -419.608V-379.975L423.326 -420.633V-441.467L422.903 -441.723L386.812 -462.56ZM387.253 -419.612L421.582 -439.445L421.593 -399.795L387.253 -379.968V-419.612ZM369.211 -429.018L385.488 -419.612V-379.975L369.211 -389.382V-429.018ZM260.976 -367.533L367.47 -429.025V-389.382L260.976 -327.89V-367.533ZM241.183 -400.806L225.769 -409.707L241.183 -418.594V-400.806ZM134.692 -501.954L294.418 -409.714L260.085 -389.887L242.927 -399.799V-420.636L242.497 -420.889L224.458 -431.306L224.018 -431.562L223.577 -431.306L205.979 -421.145L134.688 -462.311L134.692 -501.954ZM117.53 -493.06L132.937 -501.954V-484.159L117.53 -493.06ZM81.4496 -451.385L132.937 -481.124V-441.467L115.786 -431.562L81.4496 -451.385ZM187.06 -410.212V-390.392L117.53 -430.551L134.248 -440.207L134.688 -440.456V-460.279L204.218 -420.12L187.493 -410.461L187.06 -410.212ZM188.807 -389.388V-408.187L259.221 -367.527V-327.876L242.93 -337.29V-358.12L242.503 -358.376L188.807 -389.388ZM189.678 -326.36L241.165 -356.089V-316.452L224.001 -306.54L189.678 -326.36ZM368.781 -368.793L368.34 -369.049L367.9 -368.793L242.056 -296.117L225.772 -305.523L242.503 -315.179L242.93 -315.435V-335.255L259.661 -325.603L260.102 -325.346L260.542 -325.603L368.333 -387.859L385.932 -377.688L386.369 -377.438L386.819 -377.688L422.896 -398.525L423.32 -398.781V-418.608L492.856 -378.456L476.128 -368.8L475.705 -368.551V-368.039L475.712 -348.728L422.89 -379.224L422.456 -379.477L422.023 -379.224L403.984 -368.807L403.554 -368.558V-347.72L387.273 -338.314L387.259 -357.625V-358.134L386.843 -358.383L368.781 -368.793ZM242.93 -273.753L385.505 -356.089V-337.29L295.732 -285.447L295.309 -285.191V-264.367L242.93 -234.11V-273.753ZM170.769 -314.428L241.183 -273.753V-234.116L170.769 -274.777V-314.428ZM134.692 -294.597L169.014 -314.417V-274.767L134.688 -254.947L134.692 -294.597ZM116.646 -304.004L132.937 -294.597V-254.954L116.646 -264.36V-304.004ZM98.6076 -294.597L114.892 -304.004V-264.36L98.6076 -254.954V-294.597ZM96.8532 -294.597V-254.954L80.569 -264.353V-304.004L96.8532 -294.597ZM116.646 -408.184L204.225 -357.615L169.895 -337.788L116.646 -368.537V-408.184ZM77.934 -347.191L62.5304 -338.297V-356.089L77.934 -347.191ZM80.1287 -368.793L79.6884 -369.049L79.2549 -368.793L61.2163 -358.376L60.776 -358.12V-337.283L43.6043 -327.371L9.28833 -347.191L114.899 -408.184V-368.537L97.727 -358.626L80.1287 -368.793ZM99.4882 -357.615L115.772 -367.014L168.127 -336.771L133.804 -316.954L116.646 -326.859V-347.703L116.202 -347.952L99.4882 -357.615ZM26.4463 -294.597L114.892 -345.682V-326.866L79.2481 -306.284L78.8078 -306.028V-285.198L26.4429 -254.954L26.4463 -294.597ZM24.692 -294.597V-254.954L8.40771 -264.36V-304.004L24.692 -294.597ZM23.8114 -315.947L7.09366 -306.284L6.65335 -306.022V-286.208L-27.6695 -306.028V-345.672L23.8114 -315.947ZM-10.5047 -212.774L-28.1098 -222.935L-28.5433 -223.187L-28.9836 -222.935L-118.75 -171.095L-189.16 -211.756L-136.355 -242.249L-135.034 -243.011L-136.355 -243.779L-261.311 -315.94L-208.943 -346.184L-174.617 -326.364L-209.373 -306.291L-210.701 -305.526L-209.373 -304.772L-173.296 -283.934L-172.859 -283.678L-172.425 -283.934L-136.782 -304.516L-120.494 -295.109L-155.261 -275.033L-156.582 -274.279L-155.261 -273.517L-119.177 -252.68L-118.743 -252.417L-118.31 -252.68L-64.1938 -283.934L-62.8729 -284.692L-64.1972 -285.454L-153.073 -336.784L-100.718 -367.021L-84.4271 -357.622L-119.19 -337.546L-120.511 -336.784L-119.19 -336.023L-47.0222 -294.348L-46.5887 -294.099L-46.1552 -294.348L-28.5501 -304.516L-12.259 -295.109L-155.267 -212.518L-156.588 -211.763L-155.267 -210.998L-119.183 -190.164L-118.75 -189.908L-118.316 -190.164L-28.5569 -242L5.77957 -222.173L-10.5047 -212.774ZM6.65335 -220.651V-181.007L-9.62405 -171.608V-211.251L6.65335 -220.651ZM-11.3853 -211.251V-171.608L-27.6695 -181.007V-220.651L-11.3853 -211.251ZM-29.4239 -220.657V-181.007L-117.863 -129.933V-169.576L-29.4239 -220.657ZM-226.555 -233.355L-244.16 -243.523V-262.336L-174.634 -222.173L-191.358 -212.511L-191.792 -212.262V-171.608L-226.118 -191.431V-233.099L-226.555 -233.355ZM-190.031 -210.237L-119.624 -169.576V-129.94L-190.031 -170.6V-210.237ZM-173.74 -324.848V-286.202L-207.195 -305.526L-173.74 -324.848ZM-117.869 -274.774V-295.608L-118.31 -295.861L-136.348 -306.284L-136.789 -306.534L-137.219 -306.284L-153.957 -296.615V-335.255L-66.3953 -284.679L-100.718 -264.859L-117.869 -274.774ZM-102.459 -263.855L-117.863 -254.954V-272.749L-102.459 -263.855ZM-119.624 -293.587V-254.954L-153.066 -274.265L-119.624 -293.587ZM-83.5465 -356.096V-317.463L-116.996 -336.784L-83.5465 -356.096ZM-118.75 -191.929L-153.073 -211.756L-11.3853 -293.58V-253.936L-118.75 -191.929ZM-12.2727 -357.615L-28.9904 -347.959L-29.4307 -347.707V-327.876L-63.757 -347.707V-387.35L-12.2727 -357.615ZM-81.7921 -419.619L-29.4239 -449.856V-410.212L-81.7921 -379.968V-419.619ZM-117.869 -439.445L-83.5465 -419.612V-379.968L-117.869 -399.795V-439.445ZM-171.999 -409.202L-119.631 -439.445V-399.795L-171.999 -369.558V-409.202ZM-208.076 -429.018L-173.746 -409.202V-369.558L-208.076 -389.375V-429.018ZM-316.315 -327.883V-367.533L-209.83 -429.018V-389.382L-316.315 -327.883ZM-243.276 -368.039L-208.95 -387.862L-173.306 -367.277L-172.873 -367.014L-172.439 -367.277L-118.75 -398.276L-83.1062 -377.688L-82.6727 -377.438L-82.2359 -377.688L-65.5079 -387.35V-346.682L-65.0676 -346.433L-29.4239 -325.848V-306.022L-46.5887 -296.11L-81.7956 -316.442V-358.113L-82.2359 -358.369L-100.278 -368.79L-100.718 -369.046L-101.152 -368.79L-155.261 -337.532L-155.701 -337.276V-295.605L-171.992 -286.191V-326.852L-172.432 -327.108L-208.516 -347.946L-208.95 -348.202L-209.383 -347.946L-226.115 -338.283V-358.127L-226.555 -358.383L-243.276 -368.039ZM-263.506 -316.698L-263.946 -316.452V-315.947L-263.939 -295.608L-299.143 -275.286L-333.459 -295.109L-227.859 -356.096V-337.29L-263.506 -316.698ZM-262.185 -295.605V-314.421L-138.55 -243.011L-172.866 -223.187L-244.153 -264.353V-285.191L-244.594 -285.447L-262.185 -295.605ZM-298.269 -252.922L-245.901 -283.166V-243.516L-298.269 -213.276V-252.922ZM-388.476 -223.693V-262.325L-355.027 -243.004L-388.476 -223.693ZM-334.793 -254.193L-335.227 -254.449L-335.66 -254.193L-353.266 -244.025L-406.508 -274.767V-314.421L-300.02 -252.922L-300.013 -213.269L-316.308 -222.682V-243.516L-316.748 -243.772L-334.793 -254.193ZM-300.904 -211.756L-316.315 -202.855V-220.651L-300.904 -211.756ZM-423.672 -180.502L-318.069 -241.488V-201.845L-389.35 -160.682L-423.672 -180.502ZM-372.192 -150.77L-387.595 -159.664L-372.192 -168.559V-150.77ZM-300.03 -109.088L-370.437 -149.756V-168.565L-300.02 -127.901L-300.03 -109.088ZM-369.55 -170.075L-245.02 -242L-228.739 -232.594L-263.496 -212.511L-264.823 -211.756L-263.499 -210.995L-83.0994 -106.808L-82.6659 -106.558L-82.2256 -106.808L-46.1416 -127.645L-44.8207 -128.403L-46.1416 -129.175L-62.8661 -138.82L-28.5364 -158.647L5.78983 -138.82L-82.6591 -87.7457L-118.303 -108.334L-118.736 -108.597L-119.173 -108.334L-136.789 -98.1695L-153.066 -107.572L-136.341 -117.228L-135.021 -117.989L-136.341 -118.758L-280.664 -202.101L-281.104 -202.35L-281.541 -202.101L-335.657 -170.85L-336.985 -170.075L-335.657 -169.32L-317.618 -158.896L-317.181 -158.647L-316.748 -158.896L-299.143 -169.057L-264.817 -149.241L-299.143 -129.421L-369.55 -170.075ZM-227.869 -231.074V-192.448L-261.318 -211.763L-227.869 -231.074ZM-63.7535 -119.512V-137.304L-48.3499 -128.403L-63.7535 -119.512ZM6.66019 -137.308V-97.6573L-81.7853 -46.5795V-86.2331L6.66019 -137.308ZM-118.75 -64.8904L-84.4203 -45.0602L-100.711 -35.6537L-135.044 -55.484L-118.75 -64.8904ZM-135.915 -56.9897V-96.6536L-119.637 -106.053V-66.4097L-135.915 -56.9897ZM-117.863 -66.4029V-106.053L-83.5397 -86.2297V-46.5795L-117.863 -66.4029ZM-137.662 -96.6536V-57.0034L-153.953 -66.4097V-106.053L-137.662 -96.6536ZM-281.985 -199.82V-161.194L-298.709 -170.85L-299.143 -171.099L-299.58 -170.85L-317.181 -160.682L-333.459 -170.075L-281.985 -199.82ZM-298.262 -108.078V-127.901L-263.936 -147.721V-108.078L-281.097 -98.1592L-298.262 -108.078ZM-263.072 -87.7457L-279.36 -97.152L-262.625 -106.808L-262.192 -107.06V-147.714L-210.711 -117.989L-263.072 -87.7457ZM-208.503 -118.758L-208.943 -119.014L-280.224 -160.177V-199.82L-138.543 -117.989L-155.257 -108.334L-155.698 -108.078V-88.251L-208.503 -118.758ZM-155.708 -86.2331V-66.4029L-171.999 -56.9965V-95.6361L-155.708 -86.2331ZM-190.031 -86.2331L-173.74 -95.6395V-55.9859L-190.031 -46.5795V-86.2331ZM-208.076 -95.6361L-191.785 -86.2331V-46.5727L-208.076 -55.9791V-95.6361ZM-316.315 -34.1344L-209.83 -95.6361V-55.9791L-316.315 5.50897V-34.1344ZM-388.483 -55.9859V-74.7986L-318.069 -34.1344V5.50897L-334.353 -3.88715V-24.728L-334.793 -24.9841L-388.483 -55.9859ZM-387.588 7.03174L-336.107 -22.6999V16.9366L-353.272 26.8517L-387.588 7.03174ZM-281.981 48.1945L-299.139 58.0994L-315.413 48.7101L-281.975 29.392L-281.981 48.1945ZM-245.901 89.866L-298.262 120.106V80.4664L-245.901 50.2226V89.866ZM-244.16 88.8553V71.0668L-228.75 79.9611L-244.16 88.8553ZM-192.672 59.1305L-226.995 78.9504L-244.153 69.0353V48.1945L-244.594 47.9316L-262.625 37.5248L-263.066 37.2687L-263.499 37.5248L-280.237 47.1873V8.55115L-192.672 59.1305ZM-209.824 26.3499L-243.273 7.03174L-209.824 -12.2795V26.3499ZM-209.824 -35.1484V-15.3216L-226.555 -24.9841L-226.988 -25.2402L-227.422 -24.9841L-281.545 6.26355L-281.985 6.51959V26.343L-298.709 16.6805L-299.143 16.4279L-299.58 16.6805L-335.227 37.2687L-351.504 27.8692L-334.787 18.2136L-334.353 17.9575V-1.86932L-317.622 7.79315L-317.188 8.05603L-316.748 7.79315L-208.943 -54.4597L-192.655 -45.0602L-209.38 -35.4045L-209.824 -35.1484ZM-208.076 -33.1169L-191.785 -23.7105V15.9192L-208.076 6.51959V-33.1169ZM-119.624 36.7634L-136.355 27.1078L-136.789 26.8517L-137.219 27.1078L-172.866 47.6926L-208.069 27.3639V8.55115L-191.338 18.2136L-190.904 18.4697L-190.471 18.2136L-154.82 -2.37463L-119.613 17.9609V36.7634H-119.624ZM-190.031 15.9192V-23.7105L-155.698 -43.5374V-3.89398L-190.031 15.9192ZM-101.585 69.0353L-118.75 78.9504L-135.034 69.5441L-101.585 50.2192V69.0353ZM-66.3885 48.7101L-99.8307 68.0247V48.1945L-100.271 47.9316L-117.869 37.774V18.975L-66.3885 48.7101ZM-101.585 6.51959L-118.757 16.4313L-153.957 -3.89398V-43.5374L-101.592 -13.2935L-101.585 6.51959ZM-100.711 -14.8232L-154.394 -45.8181L-154.827 -46.0742L-155.267 -45.8181L-190.911 -25.2402L-207.199 -34.6465L-154.827 -64.8904L-101.145 -33.8817L-100.711 -33.6188L-100.271 -33.8817L7.53394 -96.1414L41.8568 -76.3214L25.5726 -66.915L7.97424 -77.0794L7.53394 -77.3286L7.09366 -77.0794L-100.711 -14.8232ZM42.7374 -74.7986V-55.9859L26.4463 -46.5795V-65.3923L42.7374 -74.7986ZM24.692 -65.3923V-45.5655L8.41455 -36.1591V-74.7918L24.692 -65.3923ZM-99.8307 6.51959V-13.2935L6.65335 -74.7918V-36.1591L-10.0712 -45.8181L-10.5115 -46.0742L-10.9449 -45.8181L-47.029 -24.9841L-47.4693 -24.728V-3.88715L-82.6796 16.4313L-99.8307 6.51959ZM-46.5887 37.2687L-80.9116 17.4488L-47.4625 -1.86932V17.9575L-47.0222 18.2136L-30.2976 27.8692L-46.5887 37.2687ZM-11.3853 79.4421L-117.869 140.94V101.311L-11.3853 39.7988V79.4421ZM-9.62405 78.4247V39.8124L23.8045 59.1168L-9.62405 78.4247ZM60.776 57.5941L44.0515 47.9316L43.6112 47.6926L43.1777 47.9316L25.5657 58.0994L-45.7149 16.9435V-22.6999L60.776 38.7915V57.5941ZM-44.8343 -24.2227L-10.5047 -44.0427L7.10046 -33.8817L7.54077 -33.6188L7.98108 -33.8817L80.1423 -75.5532L81.4632 -76.3112L80.1423 -77.0794L63.411 -86.735L97.7475 -106.558L132.081 -86.735L7.10046 -14.5602L5.77277 -13.8057L7.09366 -13.0375L61.2163 18.2136L61.6498 18.4697L62.0901 18.2136L115.772 -12.7882L132.063 -3.38525L61.6498 37.2756L-44.8343 -24.2227ZM62.5304 -67.4169V-85.2157L77.934 -76.3112L62.5304 -67.4169ZM132.937 -85.2225V-45.5655L43.6112 6.00745L9.28833 -13.8125L132.937 -85.2225ZM96.8532 78.4383L81.4564 69.5441L96.8532 60.6533V78.4383ZM150.102 69.5441L115.772 89.3675L98.6076 79.4558V39.8056L150.102 69.5441ZM97.2935 37.5248L96.8532 37.7706V58.6115L79.702 68.53L62.5304 58.6115V38.7915L132.937 -1.86932V16.9366L97.2935 37.5248ZM204.225 -24.2295L188.807 -15.3285V-33.1306L204.225 -24.2295ZM241.183 16.9332L224.011 26.8517L189.678 7.03174L241.169 -22.6931L241.183 16.9332ZM206.413 -45.8181L205.972 -46.0742L205.539 -45.8181L187.94 -35.6606L170.769 -45.5655V-85.2157L259.221 -34.131V5.50897L242.93 -3.89398V-24.728L242.503 -24.9841L206.413 -45.8181ZM260.102 -77.3286L242.503 -87.4896L242.063 -87.7457L241.623 -87.4896L223.584 -77.0794L222.274 -76.3112L223.584 -75.5532L259.668 -54.7294L260.109 -54.4597L260.559 -54.7294L350.319 -106.558L366.603 -97.152L260.102 -35.6537L171.646 -86.7419L224.018 -116.972L276.389 -86.735L260.102 -77.3286ZM277.253 -85.2157V-66.4097L260.976 -57.0102V-75.8093L277.253 -85.2157ZM259.221 -75.8025V-57.0034L242.93 -66.4029V-85.2088L259.221 -75.8025ZM241.183 -85.2088V-67.4169L225.772 -76.3112L241.183 -85.2088ZM367.47 -95.6361V-55.9791L260.976 5.50214V-34.1344L367.47 -95.6361ZM277.253 57.5941L261.839 48.7101L277.253 39.8124V57.5941ZM313.337 37.774L297.053 47.1805V8.5545L313.337 17.9609V37.774ZM349.414 79.4558L278.997 120.117L279.011 80.4733L349.414 39.8056V79.4558ZM332.703 27.1078L332.263 26.8517L331.823 27.1078L315.091 36.7634V17.9575L367.47 -12.2795V27.3571L350.302 37.2687L332.703 27.1078ZM367.9 68.7861L368.34 69.5441H367.47V88.8553L351.175 79.4592L351.182 38.7915L368.347 28.8798L402.673 48.7101L367.9 68.7861ZM369.211 27.3571V-12.2795L438.747 27.8624L404.431 47.6824L369.211 27.3571ZM403.544 110.717L386.386 120.622L369.211 110.703V71.0737L403.544 90.8903V110.717ZM370.091 69.5475L440.942 28.6306L442.246 27.8624L440.942 27.1078L368.77 -14.5602L368.34 -14.8232L367.9 -14.5602L314.218 16.4279L297.933 7.0249L404.424 -54.4597L438.751 -34.6465L422.473 -25.2402L404.875 -35.4045L404.435 -35.6537L403.984 -35.4045L385.956 -24.9841L384.642 -24.2295L385.956 -23.4545L474.835 27.876L422.04 58.3622L420.726 59.1305L422.04 59.8918L438.771 69.5441L404.441 89.3675L370.091 69.5475ZM439.621 -33.1135V5.50897L423.344 -3.8974V-23.7072L439.621 -33.1135ZM421.575 -23.7072V-4.91144L405.298 -14.311V-33.1135L421.575 -23.7072ZM403.544 -33.1135V-15.3285L388.13 -24.2295L403.544 -33.1135ZM439.631 89.8728L405.298 109.7V90.8868L439.631 71.0668V89.8728ZM441.372 88.8656V69.0353L440.932 68.7861L424.2 59.1305L475.691 29.392L475.698 69.0353L441.372 88.8656ZM510.902 48.7101L495.481 57.6111V39.8124L510.902 48.7101ZM510.908 27.8624L494.167 37.5248L493.737 37.7706V58.6183L477.449 68.0316V8.5545L510.908 27.8624ZM547.866 26.343L495.064 -4.14322L494.624 -4.39929L494.17 -4.14322L476.132 6.26355L475.715 6.51276V26.3499L441.375 6.51959V-35.1484L440.949 -35.4045L404.865 -56.2351L404.424 -56.498L403.984 -56.2351L295.739 6.26355L295.315 6.51276V48.1877L279.021 57.6009V37.7706L278.591 37.5248L242.954 16.9332V-1.86932L259.685 7.79315L260.112 8.04919L260.552 7.79315L368.798 -54.7294L369.234 -54.9718V-97.6539L368.798 -97.91L350.759 -108.334L350.326 -108.597L349.885 -108.334L279.038 -67.4203V-87.2472L278.615 -87.4896L224.492 -118.758L224.048 -119.014L223.608 -118.758L169.485 -87.4896L169.049 -87.2472V-44.5651L169.485 -44.3056L187.094 -34.1344V-14.3178L134.722 15.926V-3.90424L134.289 -4.14322L116.243 -14.5602L115.789 -14.8232L115.349 -14.5602L61.6668 16.4279L45.3724 7.0249L134.248 -44.3056L134.688 -44.5616V-87.2472L134.248 -87.4896L98.1639 -108.334L97.727 -108.597L97.2867 -108.334L61.2095 -87.4896L60.7692 -87.2472V-66.4029L44.4815 -56.9965V-76.8268L44.0412 -77.0794L8.39749 -97.6573V-139.332L7.95718 -139.581L-28.1269 -160.426L-28.5603 -160.682L-28.9972 -160.426L-65.0779 -139.581L-65.5182 -139.332V-118.502L-82.683 -108.597L-116.999 -128.413L-28.5603 -179.488L-10.9586 -169.32L-10.5149 -169.057L-10.0746 -169.32L7.96402 -179.737L8.4043 -179.993V-222.675L7.95718 -222.935L-26.7991 -243.018L-10.0746 -252.673L-9.63089 -252.929V-293.587L6.64651 -284.184V-263.35L7.08682 -263.097L25.1254 -252.68L25.5657 -252.417L26.006 -252.68L78.8146 -283.18V-263.35L79.2549 -263.097L97.2935 -252.68L97.7338 -252.417L98.1673 -252.68L115.772 -262.841L133.378 -252.68L133.811 -252.424L134.245 -252.68L169.885 -273.261L241.609 -231.843L242.056 -231.586L242.497 -231.843L295.292 -262.349V-242.516L295.725 -242.26L331.806 -221.426L332.246 -221.173L332.686 -221.426L349.414 -231.088V-211.261L349.844 -211.012L367.886 -200.595L368.323 -200.342L368.763 -200.595L385.485 -210.251V-171.625L314.658 -212.531L314.207 -212.791L313.77 -212.531L295.732 -202.118L295.309 -201.868V-117.508L295.732 -117.252L313.77 -106.832L314.207 -106.582L314.648 -106.832L350.285 -127.41L421.575 -86.2536V-65.4162L422.005 -65.1601L458.09 -44.3295L458.53 -44.0666L458.98 -44.3295L476.568 -54.4973L494.167 -44.3295L494.607 -44.0666L495.047 -44.3295L511.775 -53.9851V-13.3106L512.199 -13.0614L547.853 7.52686L547.866 26.343ZM297.049 -283.173L331.389 -263.343V-223.686L297.049 -243.513V-283.173ZM349.861 -254.193L349.431 -253.943V-233.106L333.144 -223.693V-263.35L367.477 -283.173V-264.36L349.861 -254.193ZM351.172 -251.912L367.453 -242.492V-202.855L351.172 -212.262V-251.912ZM297.049 -199.82L330.502 -180.502L297.049 -161.187V-199.82ZM313.337 -148.728V-109.102L297.053 -118.502V-158.135L313.337 -148.728ZM315.091 -109.102V-148.728L349.431 -168.559V-128.925L315.091 -109.102ZM422.023 -108.334L421.582 -108.071V-88.251L351.182 -128.925V-168.559L438.757 -117.989L422.023 -108.334ZM423.333 -106.046L457.666 -86.2229V-46.5795L423.333 -66.3961V-106.046ZM459.414 -46.5795V-86.2229L475.712 -95.6361L475.705 -55.9893L459.414 -46.5795ZM477.449 -55.9859V-95.6395L493.737 -86.2297V-46.5795L477.449 -55.9859ZM565.898 79.4421L458.53 141.459L424.2 121.639L565.898 39.8124V79.4421ZM567.656 78.4315V39.8295L601.071 59.1237L567.656 78.4315ZM620.021 28.3813V48.1808L602.852 58.0925L549.617 27.3571V-12.2693L620.021 28.3813ZM565.024 -24.2295L548.289 -14.5602L547.866 -14.3042V5.50897L513.533 -14.311V-53.9612L565.024 -24.2295ZM547.866 -76.8268L495.481 -46.5795L495.495 -86.2331L547.866 -116.47V-76.8268ZM583.954 -36.1591L550.484 -55.484L583.937 -74.7918V-36.1591H583.954ZM585.694 -36.1591V-53.9612L601.108 -45.0602L585.694 -36.1591ZM620.027 -55.9859L602.863 -46.0742L585.694 -55.9859V-76.8233L585.264 -77.0794L567.219 -87.4896L566.779 -87.7457L566.331 -87.4896L549.614 -77.834V-116.47L620.027 -75.8093V-55.9859ZM638.059 -66.4029L621.778 -56.9965V-75.8025L638.059 -85.2157V-66.4029ZM673.27 -86.735L639.803 -67.4101V-87.2472L639.387 -87.4896L585.698 -118.502V-137.308L673.27 -86.735ZM531.575 -210.237L674.157 -127.901V-109.085L603.31 -150.002L602.869 -150.265L602.422 -150.002L584.831 -139.844L531.596 -170.594V-210.237H531.575ZM530.701 -169.057L583.937 -138.315V-119.509L531.142 -150.002L530.691 -150.265L530.251 -150.002L512.212 -139.581L511.792 -139.332V-118.502L494.624 -108.597L460.301 -128.41L530.701 -169.057ZM513.533 -137.297L528.933 -128.403L513.533 -119.512V-137.297ZM441.372 -159.159L529.811 -210.227V-170.594L458.516 -129.431L441.372 -139.339V-159.159ZM494.17 -106.808L494.624 -106.558L495.058 -106.808L531.142 -127.645L532.452 -128.403L531.142 -129.175L514.417 -138.82L530.684 -148.226L637.185 -86.735L620.891 -77.3355L549.18 -118.758L548.74 -119.014L548.3 -118.758L494.617 -87.7457L477.019 -97.91L476.579 -98.1695L476.128 -97.91L458.54 -87.7457L424.214 -107.572L440.942 -117.228L442.252 -117.989L440.942 -118.758L350.742 -170.85L350.302 -171.095L349.861 -170.85L314.224 -150.261L297.957 -159.658L332.72 -179.737L334.034 -180.502L332.72 -181.263L297.94 -201.343L314.218 -210.742L494.17 -106.808ZM439.631 -159.145V-140.35L423.337 -149.763V-168.559L439.631 -159.145ZM438.747 -180.502L422.005 -170.843L421.575 -170.594V-150.77L387.249 -170.594V-210.233L438.747 -180.502ZM403.544 -222.685L369.211 -202.855V-242.499L403.544 -262.329V-222.685ZM457.666 -192.438L405.288 -222.682L405.295 -262.329L457.673 -232.075L457.666 -192.438ZM458.53 -233.611L404.858 -264.616L404.417 -264.866L403.967 -264.616L368.34 -244.028L352.056 -253.441L386.826 -273.511L388.133 -274.272L386.826 -275.03L368.794 -285.447L368.354 -285.696L367.91 -285.447L332.27 -264.859L297.947 -284.686L422.91 -356.854L424.224 -357.615L422.91 -358.376L406.179 -368.032L422.456 -377.438L492.849 -336.777L476.586 -327.378L440.949 -347.959L440.501 -348.215L440.061 -347.959L367.9 -306.284L366.589 -305.523L367.9 -304.765L403.984 -283.928L404.424 -283.672L404.865 -283.928L440.501 -304.509L456.786 -295.103L422.016 -275.03L420.702 -274.272L422.016 -273.511L458.1 -252.673L458.54 -252.417L458.98 -252.673L566.779 -314.933L583.049 -305.526L458.53 -233.611ZM369.211 -265.368V-283.166L384.624 -274.265L369.211 -265.368ZM405.288 -366.519L420.702 -357.622L405.291 -348.721L405.288 -366.519ZM439.631 -345.679V-306.035L404.424 -285.693L370.084 -305.523L439.631 -345.679ZM457.666 -293.587V-254.947L424.207 -274.265L457.666 -293.587ZM583.954 -264.367L459.414 -192.438V-232.082L583.954 -304.004V-264.367ZM585.694 -265.371V-283.159L601.095 -274.262L585.694 -265.371ZM638.059 -275.791L621.331 -285.447L620.891 -285.696L620.451 -285.447L602.852 -275.286L585.694 -285.198V-306.035L585.264 -306.291L567.226 -316.701L566.785 -316.958L566.345 -316.701L548.747 -306.54L531.575 -316.452V-356.089L638.066 -294.597V-275.791H638.059ZM674.157 -254.94L658.74 -263.848L674.157 -272.742V-254.94ZM727.392 -263.848L693.062 -244.025L675.894 -253.943V-293.587L727.392 -263.848ZM710.234 -316.452L674.577 -295.861L674.157 -295.608V-274.777L656.975 -264.859L639.817 -274.774V-294.59L710.234 -335.255V-316.452ZM638.059 -317.459L622.659 -326.36L638.059 -335.255V-317.459ZM673.27 -336.777L639.803 -317.459L639.817 -356.089L673.27 -336.777ZM692.189 -368.551L675.014 -358.632L657.426 -368.793L656.985 -369.049L656.538 -368.793L638.493 -358.376L638.076 -358.12V-337.29L620.894 -327.371L586.568 -347.191L692.189 -408.177V-368.551ZM709.354 -295.109L710.668 -294.348L729.146 -283.672V-285.696L712.852 -295.109L729.146 -304.509V-306.534L710.668 -295.861L709.354 -295.109ZM621.348 -264.61L620.908 -264.859L620.468 -264.61L548.293 -222.935L546.992 -222.173L548.293 -221.412L584.377 -200.574L584.824 -200.325L585.264 -200.574L602.863 -210.739L637.192 -190.919L620.451 -181.256L619.147 -180.495L620.461 -179.734L656.545 -158.889L656.992 -158.64L657.432 -158.889L729.146 -200.325V-202.35L693.943 -182.018V-221.658L729.146 -242V-244.028L693.062 -223.191L621.348 -264.61ZM584.817 -202.35L550.474 -222.17L620.021 -262.329V-222.682L584.817 -202.35ZM638.059 -171.601L622.645 -180.502L638.059 -189.399V-171.601ZM656.985 -160.682L639.803 -170.594V-191.431L639.38 -191.68L604.614 -211.756L620.891 -221.156L691.294 -180.502L656.985 -160.682ZM692.189 -182.018L621.775 -222.675V-262.329L692.189 -221.658V-182.018ZM727.392 -180.502L728.696 -179.737L729.146 -179.488V-181.512L728.696 -181.263L727.392 -180.502ZM709.354 38.2862L710.654 39.0476L729.146 49.7241V47.6892L712.862 38.2862L729.146 28.8867V26.8517L710.654 37.5248L709.354 38.2862ZM621.348 68.7861L620.908 68.5232L620.454 68.7861L584.37 89.6099L583.07 90.3849L584.377 91.1429L637.192 121.636L602.412 141.709L601.108 142.47L602.416 143.235L619.154 152.884H622.652L604.617 142.477L638.066 123.159V152.884H639.827V123.152L691.315 152.884H694.824L729.153 133.07V131.042L693.957 151.368V111.728L729.153 91.4024V89.3675L693.069 110.205L621.348 68.7861ZM620.021 109.7L586.568 90.3849L620.021 71.0668V109.7ZM692.189 151.368L621.775 110.71V71.0601L692.189 111.734V151.368ZM727.392 152.884H729.146V151.873L728.696 152.129L727.392 152.884ZM26.006 122.391L27.3269 121.636L26.006 120.885L-10.0746 100.041L-10.5115 99.7742L-10.9449 100.041L-102.466 152.884H-98.9536L-11.3853 102.321V141.961L-30.3045 152.884H-26.7923L-11.3853 143.983V152.884H-9.63089V143.996L5.77277 152.884H9.29514L-8.75369 142.467L26.006 122.391ZM-9.62405 102.328L23.8182 121.636L-9.62405 140.94V102.328Z" fill="url(#paint0_linear_1574_29604)"/>
</g>
<defs>
<linearGradient id="paint0_linear_1574_29604" x1="151.86" y1="-513.897" x2="151.86" y2="152.884" gradientUnits="userSpaceOnUse">
<stop stop-color="#D9D9D9" stop-opacity="0.35"/>
<stop offset="1" stop-color="#EAEAEA"/>
</linearGradient>
</defs>
</svg>
